<svg width="249" height="173" viewBox="0 0 249 173" fill="none" xmlns="http://www.w3.org/2000/svg">
<path fill-rule="evenodd" clip-rule="evenodd" d="M193.776 72.8623C204.472 68.2248 216.174 60.7954 226.679 65.8368C237.481 71.021 239.473 84.8955 242.81 96.3939C246.332 108.53 251.125 121.12 246.086 132.716C240.514 145.538 229.47 157.697 215.552 159.119C202.335 160.47 194.277 145.914 182.835 139.18C171.265 132.37 151.75 133.199 149.151 120.038C146.535 106.787 163.662 98.9528 172.952 89.1315C179.244 82.4802 185.373 76.5057 193.776 72.8623Z" fill="#FFECEC"/>
<path fill-rule="evenodd" clip-rule="evenodd" d="M104.977 52.3952C103.266 40.8634 99.118 27.6377 106.707 18.7955C114.51 9.70275 128.427 11.3698 140.398 11.1229C153.032 10.8623 166.434 9.49077 176.33 17.3595C187.273 26.0599 196.159 39.8742 193.93 53.6868C191.814 66.8025 175.669 70.8187 166.203 80.1278C156.631 89.5409 152.381 108.606 138.995 107.71C125.519 106.807 122.384 88.2362 115.302 76.7206C110.506 68.9217 106.321 61.4549 104.977 52.3952Z" fill="#FFECEC"/>
<path fill-rule="evenodd" clip-rule="evenodd" d="M61.006 132.206C49.3696 131.495 35.572 132.818 28.4905 123.565C21.2083 114.049 25.7177 100.778 27.9518 89.0153C30.31 76.6001 31.7398 63.2046 41.4853 55.1495C52.2607 46.243 67.6142 40.4061 80.6672 45.4432C93.0616 50.2261 93.6519 66.8525 100.802 78.0396C108.032 89.3516 125.805 97.4525 122.16 110.364C118.49 123.362 99.6723 122.588 86.9409 127.135C78.3187 130.215 70.1478 132.765 61.006 132.206Z" fill="#FFECEC"/>
<path fill-rule="evenodd" clip-rule="evenodd" d="M230.446 55.9877C230.224 66.8416 217.792 72.4598 211.831 81.5013C207.692 87.7805 206.131 95.4617 200.946 100.738C194.803 106.99 187.859 112.427 179.792 114.108C170.188 116.11 158.166 118.578 151.813 110.978C145.371 103.272 150.9 90.3065 150.893 79.5377C150.887 71.4869 149.422 63.7176 151.776 55.9373C154.323 47.5218 158.396 39.6147 164.703 33.9088C171.654 27.6195 179.963 22.6868 188.708 22.5247C197.759 22.3569 205.72 27.3202 212.825 33.0166C220.38 39.0733 230.663 45.4141 230.446 55.9877Z" stroke="#753075"/>
<path fill-rule="evenodd" clip-rule="evenodd" d="M230.343 55.3643C230.253 66.2117 217.88 72.0074 212.026 81.1284C207.96 87.4627 206.491 95.1601 201.367 100.508C195.295 106.845 188.413 112.378 180.36 114.177C170.774 116.317 158.773 118.959 152.324 111.46C145.783 103.856 151.158 90.8203 151.02 80.0612C150.916 72.0177 149.355 64.2768 151.617 56.4689C154.063 48.0235 158.042 40.0636 164.284 34.2702C171.164 27.8845 179.418 22.8342 188.168 22.5438C197.223 22.2433 205.25 27.0853 212.43 32.6723C220.064 38.6127 230.431 44.7969 230.343 55.3643Z" stroke="#753075"/>
<path fill-rule="evenodd" clip-rule="evenodd" d="M230.266 54.9263C230.269 65.7681 217.939 71.6882 212.16 80.8642C208.147 87.2367 206.743 94.9445 201.662 100.342C195.642 106.738 188.803 112.339 180.762 114.22C171.189 116.459 159.204 119.223 152.687 111.795C146.078 104.263 151.344 91.1798 151.113 80.4287C150.94 72.3911 149.312 64.6711 151.508 56.8446C153.883 48.379 157.796 40.3829 163.991 34.5284C170.82 28.0754 179.035 22.9428 187.787 22.5621C196.844 22.1681 204.917 26.9241 212.149 32.4335C219.837 38.2913 230.264 44.3644 230.266 54.9263Z" stroke="#753075"/>
<path fill-rule="evenodd" clip-rule="evenodd" d="M230.585 56.7346C230.193 67.5929 217.745 72.949 211.677 81.8703C207.463 88.0659 205.79 95.7202 200.553 100.89C194.347 107.015 187.358 112.308 179.312 113.817C169.734 115.614 157.743 117.826 151.548 110.084C145.265 102.233 150.966 89.3753 151.129 78.5973C151.25 70.5396 149.916 62.7323 152.38 54.9959C155.044 46.628 159.218 38.8016 165.577 33.2262C172.587 27.0807 180.924 22.3222 189.621 22.3476C198.621 22.3739 206.457 27.5122 213.431 33.3659C220.845 39.5899 230.968 46.1567 230.585 56.7346Z" stroke="#753075"/>
<path fill-rule="evenodd" clip-rule="evenodd" d="M120.007 18.1773C128.401 25.0619 125.132 38.307 128.554 48.5814C130.931 55.7167 136.003 61.6923 136.946 69.0297C138.063 77.7234 138.044 86.5421 134.378 93.9229C130.014 102.709 124.522 113.684 114.622 113.98C104.582 114.28 97.8083 101.919 89.3393 95.2675C83.0077 90.2948 75.9948 86.644 71.3349 79.9834C66.2946 72.779 62.5969 64.6898 62.0107 56.2051C61.3645 46.8529 62.6232 37.2731 67.902 30.2987C73.3651 23.0808 82.1881 19.891 91.058 17.8276C100.489 15.6336 111.83 11.4704 120.007 18.1773Z" stroke="#753075"/>
<path fill-rule="evenodd" clip-rule="evenodd" d="M119.453 17.8729C127.924 24.6497 124.831 37.9578 128.381 48.198C130.847 55.3097 135.989 61.2226 137.025 68.5565C138.253 77.2461 138.348 86.0767 134.783 93.5182C130.54 102.376 125.198 113.443 115.316 113.877C105.295 114.316 98.3718 102.034 89.8292 95.4913C83.4428 90.6002 76.393 87.0422 71.6539 80.4376C66.5279 73.2939 62.731 65.2455 62.0358 56.7577C61.2695 47.4022 62.4023 37.7924 67.583 30.7353C72.9445 23.4319 81.713 20.1151 90.5429 17.9256C99.9313 15.5975 111.201 11.271 119.453 17.8729Z" stroke="#753075"/>
<path fill-rule="evenodd" clip-rule="evenodd" d="M119.061 17.6628C127.585 24.3631 124.617 37.714 128.256 47.9291C130.784 55.0233 135.975 60.8914 137.077 68.2221C138.383 76.9078 138.558 85.7459 135.065 93.2294C130.907 102.137 125.672 113.267 115.804 113.798C105.798 114.336 98.7692 102.11 90.1758 95.645C83.7514 90.812 76.6764 87.3197 71.882 80.7554C66.6961 73.6551 62.8297 65.6364 62.0578 57.1474C61.207 47.7906 62.251 38.1605 67.3619 31.0459C72.6513 23.6831 81.3805 20.2772 90.1813 17.999C99.5387 15.5767 110.758 11.1356 119.061 17.6628Z" stroke="#753075"/>
<path fill-rule="evenodd" clip-rule="evenodd" d="M120.68 18.5298C128.972 25.5508 125.488 38.646 128.749 48.9305C131.014 56.0729 135.996 62.1199 136.822 69.4327C137.8 78.0972 137.64 86.8619 133.853 94.12C129.344 102.76 123.67 113.552 113.755 113.636C103.7 113.721 97.1173 101.291 88.746 94.5005C82.4876 89.4237 75.5259 85.6463 70.9679 78.9273C66.0377 71.6597 62.4658 63.5412 62.0148 55.0956C61.5178 45.7865 62.9311 36.2917 68.3271 29.4717C73.9114 22.4137 82.7946 19.4305 91.7067 17.5679C101.182 15.5874 112.602 11.6902 120.68 18.5298Z" stroke="#753075"/>
<path fill-rule="evenodd" clip-rule="evenodd" d="M21.7746 84.5846C32.2167 81.615 41.2331 91.8535 51.6248 94.9009C58.8416 97.0173 66.643 96.2578 73.208 99.6677C80.9864 103.708 88.2199 108.752 92.1928 115.972C96.9221 124.567 102.806 135.338 97.4035 143.639C91.9248 152.057 77.908 150.573 67.6146 153.737C59.9192 156.103 52.9211 159.782 44.7923 159.812C35.9998 159.844 27.2462 158.269 19.9419 153.912C11.8908 149.11 4.73893 142.613 2.01977 134.3C-0.794286 125.696 1.61657 116.629 4.97945 108.166C8.555 99.1679 11.6021 87.4775 21.7746 84.5846Z" stroke="#753075"/>
<path fill-rule="evenodd" clip-rule="evenodd" d="M21.2088 84.8659C31.606 81.772 40.7746 91.9015 51.2113 94.8244C58.4593 96.8543 66.249 96.0017 72.8644 99.3328C80.7027 103.28 88.0111 108.237 92.0915 115.409C96.9487 123.946 102.993 134.645 97.7146 143.009C92.3617 151.492 78.3235 150.176 68.0779 153.462C60.4182 155.92 53.4753 159.682 45.3474 159.809C36.5558 159.946 27.7791 158.476 20.4102 154.207C12.2879 149.501 5.03954 143.091 2.19652 134.811C-0.74572 126.242 1.52978 117.147 4.76624 108.645C8.20739 99.6053 11.08 87.88 21.2088 84.8659Z" stroke="#753075"/>
<path fill-rule="evenodd" clip-rule="evenodd" d="M20.8127 85.0682C31.1772 81.8869 40.4521 91.9386 50.9193 94.7735C58.1885 96.7423 65.9691 95.8242 72.6194 99.0993C80.499 102.98 87.8594 107.875 92.0151 115.012C96.9619 123.508 103.119 134.155 97.9282 142.564C92.6645 151.091 78.6128 149.893 68.4018 153.265C60.7681 155.787 53.8649 159.607 45.7384 159.803C36.9485 160.014 28.1565 158.618 20.7429 154.411C12.5713 149.774 5.25566 143.425 2.32567 135.17C-0.706575 126.626 1.4733 117.513 4.62036 108.984C7.96644 99.916 10.7157 88.1673 20.8127 85.0682Z" stroke="#753075"/>
<path fill-rule="evenodd" clip-rule="evenodd" d="M22.4479 84.2329C32.9441 81.4245 41.7144 91.7545 52.0227 94.94C59.1816 97.1523 66.99 96.5078 73.4683 99.9993C81.144 104.136 88.2527 109.266 92.0552 116.516C96.5817 125.147 102.212 135.962 96.6266 144.155C90.9626 152.463 76.9984 150.783 66.6463 153.787C58.9071 156.034 51.8341 159.598 43.7154 159.511C34.9339 159.417 26.2278 157.722 19.0328 153.276C11.1022 148.376 4.10833 141.801 1.58282 133.479C-1.03082 124.867 1.58412 115.868 5.136 107.485C8.91252 98.5719 12.2228 86.9687 22.4479 84.2329Z" stroke="#753075"/>
</svg>
