<svg width="25" height="25" viewBox="0 0 25 25" fill="none" xmlns="http://www.w3.org/2000/svg">
<path d="M24.9195 7.37887C24.9055 6.32917 24.7086 5.28991 24.3378 4.30757C24.0162 3.47898 23.525 2.72646 22.8956 2.09811C22.2662 1.46976 21.5125 0.979392 20.6825 0.658333C19.7112 0.294319 18.685 0.0974904 17.6477 0.0762281C16.3122 0.0166316 15.8888 0 12.4986 0C9.10845 0 8.67392 9.29361e-08 7.34812 0.0762281C6.3113 0.0976467 5.28563 0.294473 4.31475 0.658333C3.48464 0.979168 2.73076 1.46946 2.10133 2.09784C1.47191 2.72622 0.980799 3.47885 0.659429 4.30757C0.294079 5.27654 0.09735 6.30074 0.0777432 7.3359C0.0180475 8.67059 0 9.0933 0 12.4778C0 15.8623 -1.03434e-08 16.2948 0.0777432 17.6197C0.0985673 18.6564 0.294314 19.6793 0.659429 20.6509C0.981338 21.4793 1.47281 22.2317 2.10245 22.8598C2.73209 23.4879 3.48604 23.978 4.31614 24.2987C5.28436 24.6773 6.31021 24.8883 7.34951 24.9224C8.68642 24.982 9.10984 25 12.5 25C15.8902 25 16.3247 25 17.6505 24.9224C18.6877 24.902 19.714 24.7056 20.6853 24.3417C21.515 24.0202 22.2686 23.5297 22.8979 22.9014C23.5273 22.2731 24.0186 21.5208 24.3406 20.6924C24.7057 19.7223 24.9014 18.6994 24.9223 17.6613C24.982 16.328 25 15.9053 25 12.5194C24.9972 9.13488 24.9972 8.70523 24.9195 7.37887V7.37887ZM12.4903 18.8782C8.94464 18.8782 6.0723 16.0106 6.0723 12.4709C6.0723 8.93115 8.94464 6.06359 12.4903 6.06359C14.1924 6.06359 15.8249 6.73864 17.0285 7.94025C18.2321 9.14185 18.9083 10.7716 18.9083 12.4709C18.9083 14.1702 18.2321 15.7999 17.0285 17.0015C15.8249 18.2031 14.1924 18.8782 12.4903 18.8782V18.8782ZM19.1637 7.32066C18.9671 7.32084 18.7724 7.28232 18.5908 7.2073C18.4091 7.13228 18.2441 7.02223 18.1051 6.88346C17.9661 6.74469 17.8558 6.57991 17.7807 6.39856C17.7056 6.21721 17.667 6.02284 17.6671 5.82659C17.6671 5.63048 17.7058 5.43628 17.781 5.2551C17.8562 5.07391 17.9664 4.90929 18.1053 4.77061C18.2442 4.63194 18.4091 4.52194 18.5906 4.44689C18.7721 4.37184 18.9666 4.33321 19.163 4.33321C19.3595 4.33321 19.554 4.37184 19.7355 4.44689C19.9169 4.52194 20.0818 4.63194 20.2207 4.77061C20.3597 4.90929 20.4698 5.07391 20.545 5.2551C20.6202 5.43628 20.6589 5.63048 20.6589 5.82659C20.6589 6.65262 19.9897 7.32066 19.1637 7.32066Z" fill="#753075"/>
<path d="M12.5 17C14.9853 17 17 14.9853 17 12.5C17 10.0147 14.9853 8 12.5 8C10.0147 8 8 10.0147 8 12.5C8 14.9853 10.0147 17 12.5 17Z" fill="#753075"/>
</svg>
