<svg width="30" height="25" viewBox="0 0 30 25" fill="none" xmlns="http://www.w3.org/2000/svg">
<path d="M5 0C3.67392 0 2.40215 0.526784 1.46447 1.46447C0.526784 2.40215 0 3.67392 0 5V5.5025L15 13.58L30 5.505V5C30 3.67392 29.4732 2.40215 28.5355 1.46447C27.5979 0.526784 26.3261 0 25 0H5ZM30 8.3425L15.5925 16.1C15.4104 16.198 15.2068 16.2493 15 16.2493C14.7932 16.2493 14.5896 16.198 14.4075 16.1L0 8.3425V20C0 21.3261 0.526784 22.5979 1.46447 23.5355C2.40215 24.4732 3.67392 25 5 25H25C26.3261 25 27.5979 24.4732 28.5355 23.5355C29.4732 22.5979 30 21.3261 30 20V8.3425Z" fill="#753075"/>
</svg>
