<svg width="743" height="491" viewBox="0 0 743 491" fill="none" xmlns="http://www.w3.org/2000/svg">
<g clip-path="url(#clip0_40_17)">
<path fill-rule="evenodd" clip-rule="evenodd" d="M157.814 57.1474C204.253 32.8099 259.677 74.1644 311.103 63.9526C354.445 55.346 381.486 3.1003 425.666 3.95893C475.231 4.92219 518.254 35.9878 555.5 68.7024C602.823 110.268 676.193 153.422 666.729 215.692C656.943 280.085 570.777 297.271 515.522 331.753C480.493 353.614 440.11 358.54 404.456 379.365C350.889 410.652 317.07 492.777 255.735 483.489C197.573 474.682 191.895 389.837 157.665 341.996C122.449 292.779 52.4875 259.99 52.5192 199.472C52.551 138.978 104.233 85.2284 157.814 57.1474Z" stroke="#753075"/>
<path fill-rule="evenodd" clip-rule="evenodd" d="M194.666 25.3845C244.996 10.6967 291.162 62.1819 343.592 62.3266C387.78 62.4485 424.606 16.5718 467.747 26.1381C516.145 36.8701 552.186 75.8201 582.238 115.246C620.421 165.338 683.824 222.131 662.25 281.306C639.94 342.498 552.078 342.33 491.101 365.222C452.444 379.734 411.884 376.589 372.819 389.963C314.13 410.056 264.759 483.884 206.466 462.668C151.188 442.548 162.377 358.252 138.268 304.594C113.466 249.392 51.3563 203.433 63.3385 144.113C75.3157 84.8163 136.594 42.3314 194.666 25.3845Z" fill="#FFE6EA"/>
<path d="M354.5 36.0001C395.352 44.0631 416.598 68.5449 416.598 95.545C416.598 140.545 431.598 183.545 442.098 225.545C452.598 267.545 434.598 266.045 428.098 301.545C421.598 337.045 446.598 333.545 455.598 370.045C462.798 399.245 442.598 408.212 431.598 409.045C422.765 411.378 392.998 406.145 344.598 366.545C284.098 317.045 273.098 321.045 250.098 325.045C227.871 328.911 207.598 344.045 190.598 319.045C176.998 299.045 181.765 280.378 189.598 266.045C199.098 252.545 216.133 217.367 219 195C224.902 148.955 257.576 136.362 276 84.0001C295 30.0001 316.5 28.5 354.5 36.0001Z" fill="#471F47"/>
<path d="M256.75 230.906C257.75 228.094 259.094 225.417 260.781 222.875C262.49 220.333 264.521 217.969 266.875 215.781C265.167 215.24 263.354 214.833 261.438 214.562C259.521 214.271 257.469 214.125 255.281 214.125C250.99 214.125 247.521 214.927 244.875 216.531C242.25 218.115 240.938 220.177 240.938 222.719C240.938 225.302 242.302 227.302 245.031 228.719C247.781 230.135 251.688 230.865 256.75 230.906ZM270.594 215.594C272.781 216.615 274.521 217.781 275.812 219.094C277.125 220.385 278.052 221.885 278.594 223.594C280.344 221.99 281.719 220.333 282.719 218.625C283.719 216.896 284.219 215.354 284.219 214C284.219 212.75 283.854 211.76 283.125 211.031C282.396 210.281 281.417 209.906 280.188 209.906C278.729 209.906 277.167 210.406 275.5 211.406C273.833 212.385 272.198 213.781 270.594 215.594ZM262.062 230.719C265.021 230.302 267.781 229.604 270.344 228.625C272.927 227.625 275.292 226.354 277.438 224.812C277.021 223.021 276.177 221.458 274.906 220.125C273.656 218.771 271.938 217.625 269.75 216.688C268.208 218.708 266.792 220.885 265.5 223.219C264.229 225.552 263.083 228.052 262.062 230.719ZM256.375 232.312C250.104 232.083 245.333 231.115 242.062 229.406C238.812 227.677 237.188 225.271 237.188 222.188C237.188 219.333 238.708 217.042 241.75 215.312C244.792 213.583 248.896 212.719 254.062 212.719C256.479 212.719 258.844 212.896 261.156 213.25C263.49 213.583 265.781 214.094 268.031 214.781C270.406 212.698 272.667 211.135 274.812 210.094C276.979 209.031 278.979 208.5 280.812 208.5C282.792 208.5 284.365 209.052 285.531 210.156C286.698 211.26 287.281 212.729 287.281 214.562C287.281 216.562 286.562 218.594 285.125 220.656C283.688 222.698 281.635 224.594 278.969 226.344V226.875C278.969 229.875 277.875 232.5 275.688 234.75C273.5 236.979 270.302 238.75 266.094 240.062L265.781 239.844L265.594 239.281L265.844 238.969C269.656 237.635 272.542 235.979 274.5 234C276.458 232.021 277.438 229.792 277.438 227.312V227.188C275.167 228.438 272.708 229.479 270.062 230.312C267.417 231.146 264.562 231.771 261.5 232.188C261.146 233.375 260.875 234.646 260.688 236C260.5 237.354 260.406 238.75 260.406 240.188C260.406 244.25 261.51 247.438 263.719 249.75C265.927 252.062 268.958 253.219 272.812 253.219C276.354 253.219 279.781 251.896 283.094 249.25C286.427 246.604 290.125 242.219 294.188 236.094C294.25 236.26 294.302 236.427 294.344 236.594C294.385 236.76 294.406 236.885 294.406 236.969C294.406 237.615 294 238.562 293.188 239.812C292.396 241.042 291.073 242.76 289.219 244.969C286.323 248.406 283.469 250.906 280.656 252.469C277.844 254.01 274.802 254.781 271.531 254.781C266.802 254.781 262.938 253.323 259.938 250.406C256.958 247.469 255.469 243.677 255.469 239.031C255.469 237.948 255.542 236.854 255.688 235.75C255.854 234.625 256.083 233.479 256.375 232.312ZM312.719 236.156C312.781 236.365 312.823 236.531 312.844 236.656C312.865 236.76 312.875 236.865 312.875 236.969C312.875 237.927 311.948 239.635 310.094 242.094C309.802 242.49 309.573 242.792 309.406 243C305.74 248.042 303.115 251.24 301.531 252.594C299.948 253.948 298.417 254.625 296.938 254.625C295.625 254.625 294.604 254.281 293.875 253.594C293.146 252.885 292.781 251.885 292.781 250.594C292.781 249.135 293.354 247.146 294.5 244.625C295.667 242.104 297.333 239.26 299.5 236.094C298.25 236.865 297.083 237.469 296 237.906C294.917 238.344 294.052 238.562 293.406 238.562C292.615 238.562 292.01 238.375 291.594 238C291.177 237.625 290.969 237.073 290.969 236.344C290.969 235.094 291.354 233.958 292.125 232.938C292.917 231.917 293.833 231.344 294.875 231.219L295 231.406C294.708 231.969 294.51 232.396 294.406 232.688C294.302 232.979 294.25 233.24 294.25 233.469C294.25 234.01 294.396 234.417 294.688 234.688C295 234.938 295.469 235.062 296.094 235.062C296.74 235.062 297.635 234.896 298.781 234.562C299.927 234.229 301.573 233.646 303.719 232.812L303.969 233C300.865 239.604 298.906 243.948 298.094 246.031C297.281 248.094 296.875 249.531 296.875 250.344C296.875 250.865 297.042 251.312 297.375 251.688C297.708 252.042 298.094 252.219 298.531 252.219C299.552 252.219 300.969 251.24 302.781 249.281C304.594 247.302 307.906 242.927 312.719 236.156ZM312.312 246.062C315.354 245.375 317.844 244.052 319.781 242.094C321.719 240.135 322.688 238.021 322.688 235.75C322.688 234.979 322.5 234.385 322.125 233.969C321.771 233.531 321.25 233.312 320.562 233.312C318.875 233.312 317.219 234.531 315.594 236.969C313.969 239.385 312.875 242.417 312.312 246.062ZM335.469 236.531C335.531 236.615 335.573 236.719 335.594 236.844C335.635 236.969 335.656 237.115 335.656 237.281C335.656 237.885 335.427 238.646 334.969 239.562C334.531 240.458 333.844 241.562 332.906 242.875C330.135 246.688 327.24 249.625 324.219 251.688C321.219 253.75 318.312 254.781 315.5 254.781C313.208 254.781 311.385 254.062 310.031 252.625C308.698 251.167 308.031 249.219 308.031 246.781C308.031 245.115 308.396 243.417 309.125 241.688C309.854 239.938 310.917 238.24 312.312 236.594C313.583 235.094 315.01 233.917 316.594 233.062C318.177 232.208 319.708 231.781 321.188 231.781C322.708 231.781 323.958 232.208 324.938 233.062C325.938 233.896 326.438 234.948 326.438 236.219C326.438 238.281 325.146 240.365 322.562 242.469C320 244.552 316.583 246.24 312.312 247.531C312.312 249.219 312.74 250.552 313.594 251.531C314.448 252.49 315.615 252.969 317.094 252.969C319.76 252.969 322.719 251.521 325.969 248.625C329.219 245.729 332.385 241.698 335.469 236.531ZM328.281 224.562L319.531 229.625H317.781L326.5 221.938C326.896 221.604 327.26 221.354 327.594 221.188C327.948 221 328.24 220.906 328.469 220.906C328.906 220.906 329.26 221.062 329.531 221.375C329.802 221.667 329.938 222.042 329.938 222.5C329.938 222.875 329.812 223.219 329.562 223.531C329.312 223.844 328.885 224.188 328.281 224.562ZM332.875 244.281L335.5 235.062H331.969L331.844 234.688L332.125 233.781L332.438 233.469H336.094L338.688 225.219C338.854 224.698 339.021 224.333 339.188 224.125C339.375 223.917 339.625 223.781 339.938 223.719L342.219 223.219H342.469C342.635 223.219 342.75 223.26 342.812 223.344C342.896 223.406 342.938 223.51 342.938 223.656C342.938 223.781 342.927 223.885 342.906 223.969C342.906 224.031 342.896 224.094 342.875 224.156L340.25 233.469H343.562L343.625 233.781L343.438 234.812L343.188 235.062H339.781L336.031 248.125C335.844 248.688 335.708 249.208 335.625 249.688C335.542 250.146 335.5 250.562 335.5 250.938C335.5 251.396 335.646 251.781 335.938 252.094C336.229 252.385 336.594 252.531 337.031 252.531C338.365 252.531 340.208 251.219 342.562 248.594C344.938 245.948 347.875 241.927 351.375 236.531C351.417 236.635 351.448 236.76 351.469 236.906C351.49 237.031 351.5 237.208 351.5 237.438C351.5 238.438 350.531 240.281 348.594 242.969L348.5 243.125C345.562 247.25 343.094 250.198 341.094 251.969C339.115 253.74 337.312 254.625 335.688 254.625C334.354 254.625 333.312 254.281 332.562 253.594C331.833 252.885 331.469 251.885 331.469 250.594C331.469 250.094 331.583 249.312 331.812 248.25C332.062 247.167 332.417 245.844 332.875 244.281ZM351.188 246.062C354.229 245.375 356.719 244.052 358.656 242.094C360.594 240.135 361.562 238.021 361.562 235.75C361.562 234.979 361.375 234.385 361 233.969C360.646 233.531 360.125 233.312 359.438 233.312C357.75 233.312 356.094 234.531 354.469 236.969C352.844 239.385 351.75 242.417 351.188 246.062ZM374.344 236.531C374.406 236.615 374.448 236.719 374.469 236.844C374.51 236.969 374.531 237.115 374.531 237.281C374.531 237.885 374.302 238.646 373.844 239.562C373.406 240.458 372.719 241.562 371.781 242.875C369.01 246.688 366.115 249.625 363.094 251.688C360.094 253.75 357.188 254.781 354.375 254.781C352.083 254.781 350.26 254.062 348.906 252.625C347.573 251.167 346.906 249.219 346.906 246.781C346.906 245.115 347.271 243.417 348 241.688C348.729 239.938 349.792 238.24 351.188 236.594C352.458 235.094 353.885 233.917 355.469 233.062C357.052 232.208 358.583 231.781 360.062 231.781C361.583 231.781 362.833 232.208 363.812 233.062C364.812 233.896 365.312 234.948 365.312 236.219C365.312 238.281 364.021 240.365 361.438 242.469C358.875 244.552 355.458 246.24 351.188 247.531C351.188 249.219 351.615 250.552 352.469 251.531C353.323 252.49 354.49 252.969 355.969 252.969C358.635 252.969 361.594 251.521 364.844 248.625C368.094 245.729 371.26 241.698 374.344 236.531ZM380.594 226.812C379.76 226.812 378.927 226.583 378.094 226.125C377.281 225.667 376.875 225.229 376.875 224.812C376.875 224.458 377.115 223.854 377.594 223C378.073 222.125 378.406 221.688 378.594 221.688C378.844 221.688 379.188 221.844 379.625 222.156C380.083 222.469 380.396 222.667 380.562 222.75C380.688 222.812 380.844 222.885 381.031 222.969C381.635 223.24 381.938 223.552 381.938 223.906C381.938 224.948 381.833 225.698 381.625 226.156C381.417 226.594 381.073 226.812 380.594 226.812ZM370.938 246.375L375.031 233.781C375.156 233.427 375.312 233.167 375.5 233C375.688 232.812 375.938 232.688 376.25 232.625L378.594 232.188H378.844C378.99 232.188 379.104 232.229 379.188 232.312C379.271 232.375 379.312 232.479 379.312 232.625C379.312 232.729 379.302 232.812 379.281 232.875C379.281 232.917 379.271 232.958 379.25 233L374.906 246.5C374.552 247.583 374.292 248.479 374.125 249.188C373.958 249.875 373.875 250.375 373.875 250.688C373.875 251.271 374.01 251.729 374.281 252.062C374.573 252.375 374.969 252.531 375.469 252.531C376.74 252.531 378.583 251.208 381 248.562C383.438 245.896 386.5 241.865 390.188 236.469C390.229 236.656 390.26 236.812 390.281 236.938C390.302 237.062 390.312 237.177 390.312 237.281C390.312 238.24 389.375 240 387.5 242.562C387.208 242.958 386.99 243.26 386.844 243.469C383.865 247.427 381.375 250.24 379.375 251.906C377.375 253.552 375.5 254.375 373.75 254.375C372.625 254.375 371.719 254.021 371.031 253.312C370.365 252.604 370.031 251.656 370.031 250.469C370.031 250.052 370.104 249.5 370.25 248.812C370.417 248.104 370.646 247.292 370.938 246.375ZM393.25 238.844C395.583 235.781 397.333 232.76 398.5 229.781C399.667 226.802 400.25 223.865 400.25 220.969C400.25 220.177 400.198 219.281 400.094 218.281C399.99 217.281 399.844 216.219 399.656 215.094C398.031 218.302 396.677 221.917 395.594 225.938C394.51 229.958 393.729 234.26 393.25 238.844ZM392.938 241.406C392.729 242.469 392.573 243.469 392.469 244.406C392.365 245.323 392.312 246.115 392.312 246.781C392.312 248.677 392.562 250.073 393.062 250.969C393.562 251.844 394.354 252.281 395.438 252.281C396.938 252.281 398.812 251.094 401.062 248.719C403.312 246.323 406.385 242.24 410.281 236.469C410.344 236.656 410.385 236.844 410.406 237.031C410.448 237.198 410.469 237.375 410.469 237.562C410.469 237.938 410.167 238.646 409.562 239.688C408.979 240.708 408.135 241.979 407.031 243.5C404.302 247.312 401.865 250.135 399.719 251.969C397.594 253.802 395.677 254.719 393.969 254.719C392.156 254.719 390.729 254.021 389.688 252.625C388.667 251.229 388.156 249.302 388.156 246.844C388.156 245.594 388.344 243.885 388.719 241.719C389.094 239.531 389.646 236.885 390.375 233.781C390.979 231.24 391.74 228.729 392.656 226.25C393.573 223.771 394.688 221.177 396 218.469C397.083 216.24 398.167 214.333 399.25 212.75C400.354 211.167 401.323 210.094 402.156 209.531L402.594 209.469C402.969 209.823 403.24 210.385 403.406 211.156C403.594 211.906 403.688 212.896 403.688 214.125C403.688 218.562 402.771 223.094 400.938 227.719C399.125 232.344 396.458 236.906 392.938 241.406Z" fill="white"/>
<rect x="301" y="87" width="140" height="30" rx="15" fill="#D982B9"/>
<path d="M325.215 96.1504L320.724 109H318.491L314 96.1504H316.162L318.869 104.201C318.951 104.436 319.039 104.72 319.133 105.054C319.232 105.388 319.323 105.725 319.405 106.064C319.493 106.404 319.561 106.706 319.607 106.97C319.654 106.706 319.719 106.404 319.801 106.064C319.889 105.725 319.979 105.388 320.073 105.054C320.167 104.72 320.255 104.433 320.337 104.192L323.053 96.1504H325.215ZM330.506 99.0859C331.736 99.0859 332.665 99.3584 333.292 99.9033C333.925 100.448 334.241 101.298 334.241 102.452V109H332.773L332.378 107.62H332.308C332.032 107.972 331.748 108.262 331.455 108.49C331.162 108.719 330.822 108.889 330.436 109C330.055 109.117 329.589 109.176 329.038 109.176C328.458 109.176 327.939 109.07 327.482 108.859C327.025 108.643 326.665 108.314 326.401 107.875C326.138 107.436 326.006 106.879 326.006 106.205C326.006 105.203 326.378 104.45 327.122 103.946C327.872 103.442 329.003 103.164 330.515 103.111L332.202 103.05V102.54C332.202 101.866 332.044 101.386 331.728 101.099C331.417 100.812 330.978 100.668 330.409 100.668C329.923 100.668 329.451 100.738 328.994 100.879C328.537 101.02 328.092 101.192 327.658 101.397L326.99 99.9385C327.465 99.6865 328.004 99.4814 328.607 99.3232C329.217 99.165 329.85 99.0859 330.506 99.0859ZM332.193 104.351L330.937 104.395C329.905 104.43 329.182 104.605 328.766 104.922C328.35 105.238 328.142 105.672 328.142 106.223C328.142 106.703 328.285 107.055 328.572 107.277C328.859 107.494 329.237 107.603 329.706 107.603C330.421 107.603 331.013 107.4 331.481 106.996C331.956 106.586 332.193 105.985 332.193 105.194V104.351ZM339.207 109H337.133V95.3242H339.207V109ZM350.105 109.176C348.945 109.176 348.014 108.754 347.311 107.91C346.613 107.061 346.265 105.81 346.265 104.157C346.265 102.487 346.619 101.225 347.328 100.369C348.043 99.5137 348.983 99.0859 350.149 99.0859C350.642 99.0859 351.072 99.1533 351.441 99.2881C351.811 99.417 352.127 99.5928 352.391 99.8154C352.66 100.038 352.889 100.287 353.076 100.562H353.173C353.144 100.381 353.108 100.12 353.067 99.7803C353.032 99.4346 353.015 99.1152 353.015 98.8223V95.3242H355.089V109H353.472L353.103 107.673H353.015C352.839 107.954 352.616 108.209 352.347 108.438C352.083 108.66 351.767 108.839 351.397 108.974C351.034 109.108 350.604 109.176 350.105 109.176ZM350.686 107.497C351.57 107.497 352.194 107.242 352.558 106.732C352.921 106.223 353.108 105.458 353.12 104.438V104.166C353.12 103.076 352.944 102.241 352.593 101.661C352.241 101.075 351.6 100.782 350.668 100.782C349.924 100.782 349.355 101.084 348.963 101.688C348.576 102.285 348.383 103.12 348.383 104.192C348.383 105.265 348.576 106.085 348.963 106.653C349.355 107.216 349.93 107.497 350.686 107.497ZM361.927 99.0859C362.794 99.0859 363.538 99.2646 364.159 99.6221C364.78 99.9795 365.258 100.486 365.592 101.143C365.926 101.799 366.093 102.584 366.093 103.498V104.605H359.598C359.621 105.549 359.873 106.275 360.354 106.785C360.84 107.295 361.52 107.55 362.393 107.55C363.014 107.55 363.57 107.491 364.062 107.374C364.561 107.251 365.073 107.072 365.601 106.838V108.517C365.114 108.745 364.619 108.912 364.115 109.018C363.611 109.123 363.008 109.176 362.305 109.176C361.35 109.176 360.509 108.991 359.782 108.622C359.062 108.247 358.496 107.69 358.086 106.952C357.682 106.214 357.479 105.297 357.479 104.201C357.479 103.111 357.664 102.186 358.033 101.424C358.402 100.662 358.921 100.082 359.589 99.6836C360.257 99.2852 361.036 99.0859 361.927 99.0859ZM361.927 100.642C361.276 100.642 360.749 100.853 360.345 101.274C359.946 101.696 359.712 102.314 359.642 103.129H364.071C364.065 102.643 363.983 102.212 363.825 101.837C363.673 101.462 363.438 101.169 363.122 100.958C362.812 100.747 362.413 100.642 361.927 100.642ZM374.961 106.223C374.961 106.861 374.806 107.4 374.495 107.84C374.185 108.279 373.73 108.613 373.133 108.842C372.541 109.064 371.814 109.176 370.953 109.176C370.273 109.176 369.688 109.126 369.195 109.026C368.709 108.933 368.249 108.786 367.815 108.587V106.803C368.278 107.02 368.797 107.207 369.371 107.365C369.951 107.523 370.499 107.603 371.015 107.603C371.694 107.603 372.184 107.497 372.482 107.286C372.781 107.069 372.931 106.782 372.931 106.425C372.931 106.214 372.869 106.026 372.746 105.862C372.629 105.692 372.406 105.52 372.078 105.344C371.756 105.162 371.281 104.945 370.654 104.693C370.039 104.447 369.521 104.201 369.099 103.955C368.677 103.709 368.357 103.413 368.141 103.067C367.924 102.716 367.815 102.268 367.815 101.723C367.815 100.861 368.155 100.208 368.835 99.7627C369.521 99.3115 370.426 99.0859 371.551 99.0859C372.148 99.0859 372.711 99.1475 373.238 99.2705C373.771 99.3877 374.293 99.5605 374.803 99.7891L374.152 101.345C373.713 101.151 373.271 100.993 372.825 100.87C372.386 100.741 371.938 100.677 371.48 100.677C370.947 100.677 370.54 100.759 370.259 100.923C369.983 101.087 369.846 101.321 369.846 101.626C369.846 101.854 369.913 102.048 370.048 102.206C370.183 102.364 370.414 102.522 370.742 102.681C371.076 102.839 371.539 103.035 372.131 103.27C372.711 103.492 373.212 103.727 373.634 103.973C374.062 104.213 374.39 104.509 374.618 104.86C374.847 105.212 374.961 105.666 374.961 106.223ZM386.8 99.0859C386.964 99.0859 387.143 99.0947 387.336 99.1123C387.529 99.1299 387.696 99.1533 387.837 99.1826L387.644 101.116C387.521 101.081 387.368 101.055 387.187 101.037C387.011 101.02 386.853 101.011 386.712 101.011C386.343 101.011 385.991 101.072 385.657 101.195C385.323 101.312 385.027 101.494 384.77 101.74C384.512 101.98 384.31 102.282 384.163 102.646C384.017 103.009 383.943 103.431 383.943 103.911V109H381.869V99.2705H383.486L383.768 100.984H383.864C384.058 100.639 384.298 100.322 384.585 100.035C384.872 99.748 385.2 99.5195 385.569 99.3496C385.944 99.1738 386.354 99.0859 386.8 99.0859ZM398.252 104.113C398.252 104.922 398.146 105.64 397.936 106.267C397.725 106.894 397.417 107.424 397.013 107.857C396.608 108.285 396.122 108.613 395.554 108.842C394.985 109.064 394.344 109.176 393.629 109.176C392.961 109.176 392.349 109.064 391.792 108.842C391.235 108.613 390.752 108.285 390.342 107.857C389.938 107.424 389.624 106.894 389.401 106.267C389.179 105.64 389.067 104.922 389.067 104.113C389.067 103.041 389.252 102.133 389.621 101.389C389.996 100.639 390.529 100.067 391.221 99.6748C391.912 99.2822 392.735 99.0859 393.69 99.0859C394.587 99.0859 395.378 99.2822 396.063 99.6748C396.749 100.067 397.285 100.639 397.672 101.389C398.059 102.139 398.252 103.047 398.252 104.113ZM391.194 104.113C391.194 104.822 391.279 105.429 391.449 105.933C391.625 106.437 391.895 106.823 392.258 107.093C392.621 107.356 393.09 107.488 393.664 107.488C394.238 107.488 394.707 107.356 395.07 107.093C395.434 106.823 395.7 106.437 395.87 105.933C396.04 105.429 396.125 104.822 396.125 104.113C396.125 103.404 396.04 102.804 395.87 102.312C395.7 101.813 395.434 101.436 395.07 101.178C394.707 100.914 394.235 100.782 393.655 100.782C392.8 100.782 392.176 101.069 391.783 101.644C391.391 102.218 391.194 103.041 391.194 104.113ZM407.164 106.223C407.164 106.861 407.009 107.4 406.698 107.84C406.388 108.279 405.934 108.613 405.336 108.842C404.744 109.064 404.018 109.176 403.156 109.176C402.477 109.176 401.891 109.126 401.398 109.026C400.912 108.933 400.452 108.786 400.019 108.587V106.803C400.481 107.02 401 107.207 401.574 107.365C402.154 107.523 402.702 107.603 403.218 107.603C403.897 107.603 404.387 107.497 404.686 107.286C404.984 107.069 405.134 106.782 405.134 106.425C405.134 106.214 405.072 106.026 404.949 105.862C404.832 105.692 404.609 105.52 404.281 105.344C403.959 105.162 403.484 104.945 402.857 104.693C402.242 104.447 401.724 104.201 401.302 103.955C400.88 103.709 400.561 103.413 400.344 103.067C400.127 102.716 400.019 102.268 400.019 101.723C400.019 100.861 400.358 100.208 401.038 99.7627C401.724 99.3115 402.629 99.0859 403.754 99.0859C404.352 99.0859 404.914 99.1475 405.441 99.2705C405.975 99.3877 406.496 99.5605 407.006 99.7891L406.355 101.345C405.916 101.151 405.474 100.993 405.028 100.87C404.589 100.741 404.141 100.677 403.684 100.677C403.15 100.677 402.743 100.759 402.462 100.923C402.187 101.087 402.049 101.321 402.049 101.626C402.049 101.854 402.116 102.048 402.251 102.206C402.386 102.364 402.617 102.522 402.945 102.681C403.279 102.839 403.742 103.035 404.334 103.27C404.914 103.492 405.415 103.727 405.837 103.973C406.265 104.213 406.593 104.509 406.821 104.86C407.05 105.212 407.164 105.666 407.164 106.223ZM413.272 99.0859C414.14 99.0859 414.884 99.2646 415.505 99.6221C416.126 99.9795 416.604 100.486 416.938 101.143C417.271 101.799 417.438 102.584 417.438 103.498V104.605H410.943C410.967 105.549 411.219 106.275 411.699 106.785C412.186 107.295 412.865 107.55 413.738 107.55C414.359 107.55 414.916 107.491 415.408 107.374C415.906 107.251 416.419 107.072 416.946 106.838V108.517C416.46 108.745 415.965 108.912 415.461 109.018C414.957 109.123 414.354 109.176 413.65 109.176C412.695 109.176 411.854 108.991 411.128 108.622C410.407 108.247 409.842 107.69 409.432 106.952C409.027 106.214 408.825 105.297 408.825 104.201C408.825 103.111 409.01 102.186 409.379 101.424C409.748 100.662 410.267 100.082 410.935 99.6836C411.603 99.2852 412.382 99.0859 413.272 99.0859ZM413.272 100.642C412.622 100.642 412.095 100.853 411.69 101.274C411.292 101.696 411.058 102.314 410.987 103.129H415.417C415.411 102.643 415.329 102.212 415.171 101.837C415.019 101.462 414.784 101.169 414.468 100.958C414.157 100.747 413.759 100.642 413.272 100.642ZM426.307 106.223C426.307 106.861 426.151 107.4 425.841 107.84C425.53 108.279 425.076 108.613 424.479 108.842C423.887 109.064 423.16 109.176 422.299 109.176C421.619 109.176 421.033 109.126 420.541 109.026C420.055 108.933 419.595 108.786 419.161 108.587V106.803C419.624 107.02 420.143 107.207 420.717 107.365C421.297 107.523 421.845 107.603 422.36 107.603C423.04 107.603 423.529 107.497 423.828 107.286C424.127 107.069 424.276 106.782 424.276 106.425C424.276 106.214 424.215 106.026 424.092 105.862C423.975 105.692 423.752 105.52 423.424 105.344C423.102 105.162 422.627 104.945 422 104.693C421.385 104.447 420.866 104.201 420.444 103.955C420.022 103.709 419.703 103.413 419.486 103.067C419.27 102.716 419.161 102.268 419.161 101.723C419.161 100.861 419.501 100.208 420.181 99.7627C420.866 99.3115 421.771 99.0859 422.896 99.0859C423.494 99.0859 424.057 99.1475 424.584 99.2705C425.117 99.3877 425.639 99.5605 426.148 99.7891L425.498 101.345C425.059 101.151 424.616 100.993 424.171 100.87C423.731 100.741 423.283 100.677 422.826 100.677C422.293 100.677 421.886 100.759 421.604 100.923C421.329 101.087 421.191 101.321 421.191 101.626C421.191 101.854 421.259 102.048 421.394 102.206C421.528 102.364 421.76 102.522 422.088 102.681C422.422 102.839 422.885 103.035 423.477 103.27C424.057 103.492 424.558 103.727 424.979 103.973C425.407 104.213 425.735 104.509 425.964 104.86C426.192 105.212 426.307 105.666 426.307 106.223Z" fill="black"/>
<g clip-path="url(#clip1_40_17)">
<path d="M369.972 149.475C362.405 138.779 361 137.681 361 133.75C361 128.365 365.477 124 371 124C376.523 124 381 128.365 381 133.75C381 137.681 379.595 138.779 372.028 149.475C371.531 150.175 370.469 150.175 369.972 149.475ZM371 137.812C373.301 137.812 375.167 135.994 375.167 133.75C375.167 131.506 373.301 129.688 371 129.688C368.699 129.688 366.833 131.506 366.833 133.75C366.833 135.994 368.699 137.812 371 137.812Z" fill="#D982B9"/>
</g>
<path d="M463 83C463 71.9543 471.954 63 483 63H723C734.046 63 743 71.9543 743 83V83C743 94.0457 734.046 103 723 103H483C471.954 103 463 94.0457 463 83V83Z" fill="white"/>
<path d="M488.023 88.4414C488.023 89.9492 487.477 91.125 486.383 91.9688C485.289 92.8125 483.805 93.2344 481.93 93.2344C479.898 93.2344 478.336 92.9727 477.242 92.4492V90.5273C477.945 90.8242 478.711 91.0586 479.539 91.2305C480.367 91.4023 481.188 91.4883 482 91.4883C483.328 91.4883 484.328 91.2383 485 90.7383C485.672 90.2305 486.008 89.5273 486.008 88.6289C486.008 88.0352 485.887 87.5508 485.645 87.1758C485.41 86.793 485.012 86.4414 484.449 86.1211C483.895 85.8008 483.047 85.4375 481.906 85.0312C480.312 84.4609 479.172 83.7852 478.484 83.0039C477.805 82.2227 477.465 81.2031 477.465 79.9453C477.465 78.625 477.961 77.5742 478.953 76.793C479.945 76.0117 481.258 75.6211 482.891 75.6211C484.594 75.6211 486.16 75.9336 487.59 76.5586L486.969 78.293C485.555 77.6992 484.18 77.4023 482.844 77.4023C481.789 77.4023 480.965 77.6289 480.371 78.082C479.777 78.5352 479.48 79.1641 479.48 79.9688C479.48 80.5625 479.59 81.0508 479.809 81.4336C480.027 81.8086 480.395 82.1562 480.91 82.4766C481.434 82.7891 482.23 83.1367 483.301 83.5195C485.098 84.1602 486.332 84.8477 487.004 85.582C487.684 86.3164 488.023 87.2695 488.023 88.4414ZM499.133 93L498.746 91.1719H498.652C498.012 91.9766 497.371 92.5234 496.73 92.8125C496.098 93.0938 495.305 93.2344 494.352 93.2344C493.078 93.2344 492.078 92.9062 491.352 92.25C490.633 91.5938 490.273 90.6602 490.273 89.4492C490.273 86.8555 492.348 85.4961 496.496 85.3711L498.676 85.3008V84.5039C498.676 83.4961 498.457 82.7539 498.02 82.2773C497.59 81.793 496.898 81.5508 495.945 81.5508C494.875 81.5508 493.664 81.8789 492.312 82.5352L491.715 81.0469C492.348 80.7031 493.039 80.4336 493.789 80.2383C494.547 80.043 495.305 79.9453 496.062 79.9453C497.594 79.9453 498.727 80.2852 499.461 80.9648C500.203 81.6445 500.574 82.7344 500.574 84.2344V93H499.133ZM494.738 91.6289C495.949 91.6289 496.898 91.2969 497.586 90.6328C498.281 89.9688 498.629 89.0391 498.629 87.8438V86.6836L496.684 86.7656C495.137 86.8203 494.02 87.0625 493.332 87.4922C492.652 87.9141 492.312 88.5742 492.312 89.4727C492.312 90.1758 492.523 90.7109 492.945 91.0781C493.375 91.4453 493.973 91.6289 494.738 91.6289ZM506.539 93H504.594V80.1562H506.539V93ZM504.43 76.6758C504.43 76.2305 504.539 75.9062 504.758 75.7031C504.977 75.4922 505.25 75.3867 505.578 75.3867C505.891 75.3867 506.16 75.4922 506.387 75.7031C506.613 75.9141 506.727 76.2383 506.727 76.6758C506.727 77.1133 506.613 77.4414 506.387 77.6602C506.16 77.8711 505.891 77.9766 505.578 77.9766C505.25 77.9766 504.977 77.8711 504.758 77.6602C504.539 77.4414 504.43 77.1133 504.43 76.6758ZM519.453 93V84.6914C519.453 83.6445 519.215 82.8633 518.738 82.3477C518.262 81.832 517.516 81.5742 516.5 81.5742C515.156 81.5742 514.172 81.9375 513.547 82.6641C512.922 83.3906 512.609 84.5898 512.609 86.2617V93H510.664V80.1562H512.246L512.562 81.9141H512.656C513.055 81.2812 513.613 80.793 514.332 80.4492C515.051 80.0977 515.852 79.9219 516.734 79.9219C518.281 79.9219 519.445 80.2969 520.227 81.0469C521.008 81.7891 521.398 82.9805 521.398 84.6211V93H519.453ZM529.555 91.6289C529.898 91.6289 530.23 91.6055 530.551 91.5586C530.871 91.5039 531.125 91.4492 531.312 91.3945V92.8828C531.102 92.9844 530.789 93.0664 530.375 93.1289C529.969 93.1992 529.602 93.2344 529.273 93.2344C526.789 93.2344 525.547 91.9258 525.547 89.3086V81.668H523.707V80.7305L525.547 79.9219L526.367 77.1797H527.492V80.1562H531.219V81.668H527.492V89.2266C527.492 90 527.676 90.5938 528.043 91.0078C528.41 91.4219 528.914 91.6289 529.555 91.6289ZM532.812 87.457V85.6758H538.566V87.457H532.812ZM549.5 93L543.688 77.8125H543.594C543.703 79.0156 543.758 80.4453 543.758 82.1016V93H541.918V75.8672H544.918L550.344 90H550.438L555.91 75.8672H558.887V93H556.895V81.9609C556.895 80.6953 556.949 79.3203 557.059 77.8359H556.965L551.105 93H549.5ZM571.203 93L570.816 91.1719H570.723C570.082 91.9766 569.441 92.5234 568.801 92.8125C568.168 93.0938 567.375 93.2344 566.422 93.2344C565.148 93.2344 564.148 92.9062 563.422 92.25C562.703 91.5938 562.344 90.6602 562.344 89.4492C562.344 86.8555 564.418 85.4961 568.566 85.3711L570.746 85.3008V84.5039C570.746 83.4961 570.527 82.7539 570.09 82.2773C569.66 81.793 568.969 81.5508 568.016 81.5508C566.945 81.5508 565.734 81.8789 564.383 82.5352L563.785 81.0469C564.418 80.7031 565.109 80.4336 565.859 80.2383C566.617 80.043 567.375 79.9453 568.133 79.9453C569.664 79.9453 570.797 80.2852 571.531 80.9648C572.273 81.6445 572.645 82.7344 572.645 84.2344V93H571.203ZM566.809 91.6289C568.02 91.6289 568.969 91.2969 569.656 90.6328C570.352 89.9688 570.699 89.0391 570.699 87.8438V86.6836L568.754 86.7656C567.207 86.8203 566.09 87.0625 565.402 87.4922C564.723 87.9141 564.383 88.5742 564.383 89.4727C564.383 90.1758 564.594 90.7109 565.016 91.0781C565.445 91.4453 566.043 91.6289 566.809 91.6289ZM578.492 80.1562V88.4883C578.492 89.5352 578.73 90.3164 579.207 90.832C579.684 91.3477 580.43 91.6055 581.445 91.6055C582.789 91.6055 583.77 91.2383 584.387 90.5039C585.012 89.7695 585.324 88.5703 585.324 86.9062V80.1562H587.27V93H585.664L585.383 91.2773H585.277C584.879 91.9102 584.324 92.3945 583.613 92.7305C582.91 93.0664 582.105 93.2344 581.199 93.2344C579.637 93.2344 578.465 92.8633 577.684 92.1211C576.91 91.3789 576.523 90.1914 576.523 88.5586V80.1562H578.492ZM597.266 79.9219C597.836 79.9219 598.348 79.9688 598.801 80.0625L598.531 81.8672C598 81.75 597.531 81.6914 597.125 81.6914C596.086 81.6914 595.195 82.1133 594.453 82.957C593.719 83.8008 593.352 84.8516 593.352 86.1094V93H591.406V80.1562H593.012L593.234 82.5352H593.328C593.805 81.6992 594.379 81.0547 595.051 80.6016C595.723 80.1484 596.461 79.9219 597.266 79.9219ZM600.125 87.457V85.6758H605.879V87.457H600.125ZM617.68 91.2773H617.574C616.676 92.582 615.332 93.2344 613.543 93.2344C611.863 93.2344 610.555 92.6602 609.617 91.5117C608.688 90.3633 608.223 88.7305 608.223 86.6133C608.223 84.4961 608.691 82.8516 609.629 81.6797C610.566 80.5078 611.871 79.9219 613.543 79.9219C615.285 79.9219 616.621 80.5547 617.551 81.8203H617.703L617.621 80.8945L617.574 79.9922V74.7656H619.52V93H617.938L617.68 91.2773ZM613.789 91.6055C615.117 91.6055 616.078 91.2461 616.672 90.5273C617.273 89.8008 617.574 88.6328 617.574 87.0234V86.6133C617.574 84.793 617.27 83.4961 616.66 82.7227C616.059 81.9414 615.094 81.5508 613.766 81.5508C612.625 81.5508 611.75 81.9961 611.141 82.8867C610.539 83.7695 610.238 85.0195 610.238 86.6367C610.238 88.2773 610.539 89.5156 611.141 90.3516C611.742 91.1875 612.625 91.6055 613.789 91.6055ZM629.082 93.2344C627.184 93.2344 625.684 92.6562 624.582 91.5C623.488 90.3438 622.941 88.7383 622.941 86.6836C622.941 84.6133 623.449 82.9688 624.465 81.75C625.488 80.5312 626.859 79.9219 628.578 79.9219C630.188 79.9219 631.461 80.4531 632.398 81.5156C633.336 82.5703 633.805 83.9648 633.805 85.6992V86.9297H624.957C624.996 88.4375 625.375 89.582 626.094 90.3633C626.82 91.1445 627.84 91.5352 629.152 91.5352C630.535 91.5352 631.902 91.2461 633.254 90.668V92.4023C632.566 92.6992 631.914 92.9102 631.297 93.0352C630.688 93.168 629.949 93.2344 629.082 93.2344ZM628.555 81.5508C627.523 81.5508 626.699 81.8867 626.082 82.5586C625.473 83.2305 625.113 84.1602 625.004 85.3477H631.719C631.719 84.1211 631.445 83.1836 630.898 82.5352C630.352 81.8789 629.57 81.5508 628.555 81.5508ZM645.418 89.4961C645.418 90.6914 644.973 91.6133 644.082 92.2617C643.191 92.9102 641.941 93.2344 640.332 93.2344C638.629 93.2344 637.301 92.9648 636.348 92.4258V90.6211C636.965 90.9336 637.625 91.1797 638.328 91.3594C639.039 91.5391 639.723 91.6289 640.379 91.6289C641.395 91.6289 642.176 91.4688 642.723 91.1484C643.27 90.8203 643.543 90.3242 643.543 89.6602C643.543 89.1602 643.324 88.7344 642.887 88.3828C642.457 88.0234 641.613 87.6016 640.355 87.1172C639.16 86.6719 638.309 86.2852 637.801 85.957C637.301 85.6211 636.926 85.2422 636.676 84.8203C636.434 84.3984 636.312 83.8945 636.312 83.3086C636.312 82.2617 636.738 81.4375 637.59 80.8359C638.441 80.2266 639.609 79.9219 641.094 79.9219C642.477 79.9219 643.828 80.2031 645.148 80.7656L644.457 82.3477C643.168 81.8164 642 81.5508 640.953 81.5508C640.031 81.5508 639.336 81.6953 638.867 81.9844C638.398 82.2734 638.164 82.6719 638.164 83.1797C638.164 83.5234 638.25 83.8164 638.422 84.0586C638.602 84.3008 638.887 84.5312 639.277 84.75C639.668 84.9688 640.418 85.2852 641.527 85.6992C643.051 86.2539 644.078 86.8125 644.609 87.375C645.148 87.9375 645.418 88.6445 645.418 89.4961ZM647.516 87.457V85.6758H653.27V87.457H647.516ZM658.613 93H656.621V75.8672H666.172V77.6367H658.613V83.9062H665.715V85.6758H658.613V93ZM679.812 86.5664C679.812 88.6602 679.285 90.2969 678.23 91.4766C677.176 92.6484 675.719 93.2344 673.859 93.2344C672.711 93.2344 671.691 92.9648 670.801 92.4258C669.91 91.8867 669.223 91.1133 668.738 90.1055C668.254 89.0977 668.012 87.918 668.012 86.5664C668.012 84.4727 668.535 82.8438 669.582 81.6797C670.629 80.5078 672.082 79.9219 673.941 79.9219C675.738 79.9219 677.164 80.5195 678.219 81.7148C679.281 82.9102 679.812 84.5273 679.812 86.5664ZM670.027 86.5664C670.027 88.207 670.355 89.457 671.012 90.3164C671.668 91.1758 672.633 91.6055 673.906 91.6055C675.18 91.6055 676.145 91.1797 676.801 90.3281C677.465 89.4688 677.797 88.2148 677.797 86.5664C677.797 84.9336 677.465 83.6953 676.801 82.8516C676.145 82 675.172 81.5742 673.883 81.5742C672.609 81.5742 671.648 81.9922 671 82.8281C670.352 83.6641 670.027 84.9102 670.027 86.5664ZM691.52 89.4961C691.52 90.6914 691.074 91.6133 690.184 92.2617C689.293 92.9102 688.043 93.2344 686.434 93.2344C684.73 93.2344 683.402 92.9648 682.449 92.4258V90.6211C683.066 90.9336 683.727 91.1797 684.43 91.3594C685.141 91.5391 685.824 91.6289 686.48 91.6289C687.496 91.6289 688.277 91.4688 688.824 91.1484C689.371 90.8203 689.645 90.3242 689.645 89.6602C689.645 89.1602 689.426 88.7344 688.988 88.3828C688.559 88.0234 687.715 87.6016 686.457 87.1172C685.262 86.6719 684.41 86.2852 683.902 85.957C683.402 85.6211 683.027 85.2422 682.777 84.8203C682.535 84.3984 682.414 83.8945 682.414 83.3086C682.414 82.2617 682.84 81.4375 683.691 80.8359C684.543 80.2266 685.711 79.9219 687.195 79.9219C688.578 79.9219 689.93 80.2031 691.25 80.7656L690.559 82.3477C689.27 81.8164 688.102 81.5508 687.055 81.5508C686.133 81.5508 685.438 81.6953 684.969 81.9844C684.5 82.2734 684.266 82.6719 684.266 83.1797C684.266 83.5234 684.352 83.8164 684.523 84.0586C684.703 84.3008 684.988 84.5312 685.379 84.75C685.77 84.9688 686.52 85.2852 687.629 85.6992C689.152 86.2539 690.18 86.8125 690.711 87.375C691.25 87.9375 691.52 88.6445 691.52 89.4961ZM702.98 89.4961C702.98 90.6914 702.535 91.6133 701.645 92.2617C700.754 92.9102 699.504 93.2344 697.895 93.2344C696.191 93.2344 694.863 92.9648 693.91 92.4258V90.6211C694.527 90.9336 695.188 91.1797 695.891 91.3594C696.602 91.5391 697.285 91.6289 697.941 91.6289C698.957 91.6289 699.738 91.4688 700.285 91.1484C700.832 90.8203 701.105 90.3242 701.105 89.6602C701.105 89.1602 700.887 88.7344 700.449 88.3828C700.02 88.0234 699.176 87.6016 697.918 87.1172C696.723 86.6719 695.871 86.2852 695.363 85.957C694.863 85.6211 694.488 85.2422 694.238 84.8203C693.996 84.3984 693.875 83.8945 693.875 83.3086C693.875 82.2617 694.301 81.4375 695.152 80.8359C696.004 80.2266 697.172 79.9219 698.656 79.9219C700.039 79.9219 701.391 80.2031 702.711 80.7656L702.02 82.3477C700.73 81.8164 699.562 81.5508 698.516 81.5508C697.594 81.5508 696.898 81.6953 696.43 81.9844C695.961 82.2734 695.727 82.6719 695.727 83.1797C695.727 83.5234 695.812 83.8164 695.984 84.0586C696.164 84.3008 696.449 84.5312 696.84 84.75C697.23 84.9688 697.98 85.2852 699.09 85.6992C700.613 86.2539 701.641 86.8125 702.172 87.375C702.711 87.9375 702.98 88.6445 702.98 89.4961ZM711.582 93.2344C709.684 93.2344 708.184 92.6562 707.082 91.5C705.988 90.3438 705.441 88.7383 705.441 86.6836C705.441 84.6133 705.949 82.9688 706.965 81.75C707.988 80.5312 709.359 79.9219 711.078 79.9219C712.688 79.9219 713.961 80.4531 714.898 81.5156C715.836 82.5703 716.305 83.9648 716.305 85.6992V86.9297H707.457C707.496 88.4375 707.875 89.582 708.594 90.3633C709.32 91.1445 710.34 91.5352 711.652 91.5352C713.035 91.5352 714.402 91.2461 715.754 90.668V92.4023C715.066 92.6992 714.414 92.9102 713.797 93.0352C713.188 93.168 712.449 93.2344 711.582 93.2344ZM711.055 81.5508C710.023 81.5508 709.199 81.8867 708.582 82.5586C707.973 83.2305 707.613 84.1602 707.504 85.3477H714.219C714.219 84.1211 713.945 83.1836 713.398 82.5352C712.852 81.8789 712.07 81.5508 711.055 81.5508ZM709.613 78.1641C709.988 77.6797 710.391 77.0938 710.82 76.4062C711.258 75.7188 711.602 75.1211 711.852 74.6133H714.219V74.8594C713.875 75.3672 713.363 75.9922 712.684 76.7344C712.004 77.4766 711.414 78.0508 710.914 78.457H709.613V78.1641ZM727.918 89.4961C727.918 90.6914 727.473 91.6133 726.582 92.2617C725.691 92.9102 724.441 93.2344 722.832 93.2344C721.129 93.2344 719.801 92.9648 718.848 92.4258V90.6211C719.465 90.9336 720.125 91.1797 720.828 91.3594C721.539 91.5391 722.223 91.6289 722.879 91.6289C723.895 91.6289 724.676 91.4688 725.223 91.1484C725.77 90.8203 726.043 90.3242 726.043 89.6602C726.043 89.1602 725.824 88.7344 725.387 88.3828C724.957 88.0234 724.113 87.6016 722.855 87.1172C721.66 86.6719 720.809 86.2852 720.301 85.957C719.801 85.6211 719.426 85.2422 719.176 84.8203C718.934 84.3984 718.812 83.8945 718.812 83.3086C718.812 82.2617 719.238 81.4375 720.09 80.8359C720.941 80.2266 722.109 79.9219 723.594 79.9219C724.977 79.9219 726.328 80.2031 727.648 80.7656L726.957 82.3477C725.668 81.8164 724.5 81.5508 723.453 81.5508C722.531 81.5508 721.836 81.6953 721.367 81.9844C720.898 82.2734 720.664 82.6719 720.664 83.1797C720.664 83.5234 720.75 83.8164 720.922 84.0586C721.102 84.3008 721.387 84.5312 721.777 84.75C722.168 84.9688 722.918 85.2852 724.027 85.6992C725.551 86.2539 726.578 86.8125 727.109 87.375C727.648 87.9375 727.918 88.6445 727.918 89.4961Z" fill="#753075"/>
<path d="M2 135C2 123.954 10.9543 115 22 115H172C183.046 115 192 123.954 192 135V135C192 146.046 183.046 155 172 155H22C10.9543 155 2 146.046 2 135V135Z" fill="white"/>
<path d="M24.9375 145L19.125 129.812H19.0312C19.1406 131.016 19.1953 132.445 19.1953 134.102V145H17.3555V127.867H20.3555L25.7812 142H25.875L31.3477 127.867H34.3242V145H32.332V133.961C32.332 132.695 32.3867 131.32 32.4961 129.836H32.4023L26.543 145H24.9375ZM46.6406 145L46.2539 143.172H46.1602C45.5195 143.977 44.8789 144.523 44.2383 144.812C43.6055 145.094 42.8125 145.234 41.8594 145.234C40.5859 145.234 39.5859 144.906 38.8594 144.25C38.1406 143.594 37.7812 142.66 37.7812 141.449C37.7812 138.855 39.8555 137.496 44.0039 137.371L46.1836 137.301V136.504C46.1836 135.496 45.9648 134.754 45.5273 134.277C45.0977 133.793 44.4062 133.551 43.4531 133.551C42.3828 133.551 41.1719 133.879 39.8203 134.535L39.2227 133.047C39.8555 132.703 40.5469 132.434 41.2969 132.238C42.0547 132.043 42.8125 131.945 43.5703 131.945C45.1016 131.945 46.2344 132.285 46.9688 132.965C47.7109 133.645 48.082 134.734 48.082 136.234V145H46.6406ZM42.2461 143.629C43.457 143.629 44.4062 143.297 45.0938 142.633C45.7891 141.969 46.1367 141.039 46.1367 139.844V138.684L44.1914 138.766C42.6445 138.82 41.5273 139.062 40.8398 139.492C40.1602 139.914 39.8203 140.574 39.8203 141.473C39.8203 142.176 40.0312 142.711 40.4531 143.078C40.8828 143.445 41.4805 143.629 42.2461 143.629ZM54.0469 145H52.1016V132.156H54.0469V145ZM51.9375 128.676C51.9375 128.23 52.0469 127.906 52.2656 127.703C52.4844 127.492 52.7578 127.387 53.0859 127.387C53.3984 127.387 53.668 127.492 53.8945 127.703C54.1211 127.914 54.2344 128.238 54.2344 128.676C54.2344 129.113 54.1211 129.441 53.8945 129.66C53.668 129.871 53.3984 129.977 53.0859 129.977C52.7578 129.977 52.4844 129.871 52.2656 129.66C52.0469 129.441 51.9375 129.113 51.9375 128.676ZM66.457 141.496C66.457 142.691 66.0117 143.613 65.1211 144.262C64.2305 144.91 62.9805 145.234 61.3711 145.234C59.668 145.234 58.3398 144.965 57.3867 144.426V142.621C58.0039 142.934 58.6641 143.18 59.3672 143.359C60.0781 143.539 60.7617 143.629 61.418 143.629C62.4336 143.629 63.2148 143.469 63.7617 143.148C64.3086 142.82 64.582 142.324 64.582 141.66C64.582 141.16 64.3633 140.734 63.9258 140.383C63.4961 140.023 62.6523 139.602 61.3945 139.117C60.1992 138.672 59.3477 138.285 58.8398 137.957C58.3398 137.621 57.9648 137.242 57.7148 136.82C57.4727 136.398 57.3516 135.895 57.3516 135.309C57.3516 134.262 57.7773 133.438 58.6289 132.836C59.4805 132.227 60.6484 131.922 62.1328 131.922C63.5156 131.922 64.8672 132.203 66.1875 132.766L65.4961 134.348C64.207 133.816 63.0391 133.551 61.9922 133.551C61.0703 133.551 60.375 133.695 59.9062 133.984C59.4375 134.273 59.2031 134.672 59.2031 135.18C59.2031 135.523 59.2891 135.816 59.4609 136.059C59.6406 136.301 59.9258 136.531 60.3164 136.75C60.707 136.969 61.457 137.285 62.5664 137.699C64.0898 138.254 65.1172 138.812 65.6484 139.375C66.1875 139.938 66.457 140.645 66.457 141.496ZM80.7188 138.566C80.7188 140.66 80.1914 142.297 79.1367 143.477C78.082 144.648 76.625 145.234 74.7656 145.234C73.6172 145.234 72.5977 144.965 71.707 144.426C70.8164 143.887 70.1289 143.113 69.6445 142.105C69.1602 141.098 68.918 139.918 68.918 138.566C68.918 136.473 69.4414 134.844 70.4883 133.68C71.5352 132.508 72.9883 131.922 74.8477 131.922C76.6445 131.922 78.0703 132.52 79.125 133.715C80.1875 134.91 80.7188 136.527 80.7188 138.566ZM70.9336 138.566C70.9336 140.207 71.2617 141.457 71.918 142.316C72.5742 143.176 73.5391 143.605 74.8125 143.605C76.0859 143.605 77.0508 143.18 77.707 142.328C78.3711 141.469 78.7031 140.215 78.7031 138.566C78.7031 136.934 78.3711 135.695 77.707 134.852C77.0508 134 76.0781 133.574 74.7891 133.574C73.5156 133.574 72.5547 133.992 71.9062 134.828C71.2578 135.664 70.9336 136.91 70.9336 138.566ZM92.9297 145V136.691C92.9297 135.645 92.6914 134.863 92.2148 134.348C91.7383 133.832 90.9922 133.574 89.9766 133.574C88.6328 133.574 87.6484 133.938 87.0234 134.664C86.3984 135.391 86.0859 136.59 86.0859 138.262V145H84.1406V132.156H85.7227L86.0391 133.914H86.1328C86.5312 133.281 87.0898 132.793 87.8086 132.449C88.5273 132.098 89.3281 131.922 90.2109 131.922C91.7578 131.922 92.9219 132.297 93.7031 133.047C94.4844 133.789 94.875 134.98 94.875 136.621V145H92.9297ZM107.168 141.496C107.168 142.691 106.723 143.613 105.832 144.262C104.941 144.91 103.691 145.234 102.082 145.234C100.379 145.234 99.0508 144.965 98.0977 144.426V142.621C98.7148 142.934 99.375 143.18 100.078 143.359C100.789 143.539 101.473 143.629 102.129 143.629C103.145 143.629 103.926 143.469 104.473 143.148C105.02 142.82 105.293 142.324 105.293 141.66C105.293 141.16 105.074 140.734 104.637 140.383C104.207 140.023 103.363 139.602 102.105 139.117C100.91 138.672 100.059 138.285 99.5508 137.957C99.0508 137.621 98.6758 137.242 98.4258 136.82C98.1836 136.398 98.0625 135.895 98.0625 135.309C98.0625 134.262 98.4883 133.438 99.3398 132.836C100.191 132.227 101.359 131.922 102.844 131.922C104.227 131.922 105.578 132.203 106.898 132.766L106.207 134.348C104.918 133.816 103.75 133.551 102.703 133.551C101.781 133.551 101.086 133.695 100.617 133.984C100.148 134.273 99.9141 134.672 99.9141 135.18C99.9141 135.523 100 135.816 100.172 136.059C100.352 136.301 100.637 136.531 101.027 136.75C101.418 136.969 102.168 137.285 103.277 137.699C104.801 138.254 105.828 138.812 106.359 139.375C106.898 139.938 107.168 140.645 107.168 141.496ZM109.266 139.457V137.676H115.02V139.457H109.266ZM129.141 145L127.008 139.551H120.141L118.031 145H116.016L122.789 127.797H124.465L131.203 145H129.141ZM126.387 137.758L124.395 132.449C124.137 131.777 123.871 130.953 123.598 129.977C123.426 130.727 123.18 131.551 122.859 132.449L120.844 137.758H126.387ZM135.211 145H133.266V126.766H135.211V145ZM145.125 133.668H141.855V145H139.91V133.668H137.613V132.789L139.91 132.086V131.371C139.91 128.215 141.289 126.637 144.047 126.637C144.727 126.637 145.523 126.773 146.438 127.047L145.934 128.605C145.184 128.363 144.543 128.242 144.012 128.242C143.277 128.242 142.734 128.488 142.383 128.98C142.031 129.465 141.855 130.246 141.855 131.324V132.156H145.125V133.668ZM158.555 138.566C158.555 140.66 158.027 142.297 156.973 143.477C155.918 144.648 154.461 145.234 152.602 145.234C151.453 145.234 150.434 144.965 149.543 144.426C148.652 143.887 147.965 143.113 147.48 142.105C146.996 141.098 146.754 139.918 146.754 138.566C146.754 136.473 147.277 134.844 148.324 133.68C149.371 132.508 150.824 131.922 152.684 131.922C154.48 131.922 155.906 132.52 156.961 133.715C158.023 134.91 158.555 136.527 158.555 138.566ZM148.77 138.566C148.77 140.207 149.098 141.457 149.754 142.316C150.41 143.176 151.375 143.605 152.648 143.605C153.922 143.605 154.887 143.18 155.543 142.328C156.207 141.469 156.539 140.215 156.539 138.566C156.539 136.934 156.207 135.695 155.543 134.852C154.887 134 153.914 133.574 152.625 133.574C151.352 133.574 150.391 133.992 149.742 134.828C149.094 135.664 148.77 136.91 148.77 138.566ZM167.836 131.922C168.406 131.922 168.918 131.969 169.371 132.062L169.102 133.867C168.57 133.75 168.102 133.691 167.695 133.691C166.656 133.691 165.766 134.113 165.023 134.957C164.289 135.801 163.922 136.852 163.922 138.109V145H161.977V132.156H163.582L163.805 134.535H163.898C164.375 133.699 164.949 133.055 165.621 132.602C166.293 132.148 167.031 131.922 167.836 131.922ZM175.922 143.629C176.266 143.629 176.598 143.605 176.918 143.559C177.238 143.504 177.492 143.449 177.68 143.395V144.883C177.469 144.984 177.156 145.066 176.742 145.129C176.336 145.199 175.969 145.234 175.641 145.234C173.156 145.234 171.914 143.926 171.914 141.309V133.668H170.074V132.73L171.914 131.922L172.734 129.18H173.859V132.156H177.586V133.668H173.859V141.227C173.859 142 174.043 142.594 174.41 143.008C174.777 143.422 175.281 143.629 175.922 143.629Z" fill="#753075"/>
<path d="M25 256C25 244.954 33.9543 236 45 236H137C148.046 236 157 244.954 157 256V256C157 267.046 148.046 276 137 276H45C33.9543 276 25 267.046 25 256V256Z" fill="white"/>
<path d="M51.125 266L48.9922 260.551H42.125L40.0156 266H38L44.7734 248.797H46.4492L53.1875 266H51.125ZM48.3711 258.758L46.3789 253.449C46.1211 252.777 45.8555 251.953 45.582 250.977C45.4102 251.727 45.1641 252.551 44.8438 253.449L42.8281 258.758H48.3711ZM57.1953 266H55.25V247.766H57.1953V266ZM67.1094 254.668H63.8398V266H61.8945V254.668H59.5977V253.789L61.8945 253.086V252.371C61.8945 249.215 63.2734 247.637 66.0312 247.637C66.7109 247.637 67.5078 247.773 68.4219 248.047L67.918 249.605C67.168 249.363 66.5273 249.242 65.9961 249.242C65.2617 249.242 64.7188 249.488 64.3672 249.98C64.0156 250.465 63.8398 251.246 63.8398 252.324V253.156H67.1094V254.668ZM80.5391 259.566C80.5391 261.66 80.0117 263.297 78.957 264.477C77.9023 265.648 76.4453 266.234 74.5859 266.234C73.4375 266.234 72.418 265.965 71.5273 265.426C70.6367 264.887 69.9492 264.113 69.4648 263.105C68.9805 262.098 68.7383 260.918 68.7383 259.566C68.7383 257.473 69.2617 255.844 70.3086 254.68C71.3555 253.508 72.8086 252.922 74.668 252.922C76.4648 252.922 77.8906 253.52 78.9453 254.715C80.0078 255.91 80.5391 257.527 80.5391 259.566ZM70.7539 259.566C70.7539 261.207 71.082 262.457 71.7383 263.316C72.3945 264.176 73.3594 264.605 74.6328 264.605C75.9062 264.605 76.8711 264.18 77.5273 263.328C78.1914 262.469 78.5234 261.215 78.5234 259.566C78.5234 257.934 78.1914 256.695 77.5273 255.852C76.8711 255 75.8984 254.574 74.6094 254.574C73.3359 254.574 72.375 254.992 71.7266 255.828C71.0781 256.664 70.7539 257.91 70.7539 259.566ZM89.8203 252.922C90.3906 252.922 90.9023 252.969 91.3555 253.062L91.0859 254.867C90.5547 254.75 90.0859 254.691 89.6797 254.691C88.6406 254.691 87.75 255.113 87.0078 255.957C86.2734 256.801 85.9062 257.852 85.9062 259.109V266H83.9609V253.156H85.5664L85.7891 255.535H85.8828C86.3594 254.699 86.9336 254.055 87.6055 253.602C88.2773 253.148 89.0156 252.922 89.8203 252.922ZM97.9062 264.629C98.25 264.629 98.582 264.605 98.9023 264.559C99.2227 264.504 99.4766 264.449 99.6641 264.395V265.883C99.4531 265.984 99.1406 266.066 98.7266 266.129C98.3203 266.199 97.9531 266.234 97.625 266.234C95.1406 266.234 93.8984 264.926 93.8984 262.309V254.668H92.0586V253.73L93.8984 252.922L94.7188 250.18H95.8438V253.156H99.5703V254.668H95.8438V262.227C95.8438 263 96.0273 263.594 96.3945 264.008C96.7617 264.422 97.2656 264.629 97.9062 264.629ZM105.055 266L100.18 253.156H102.266L105.031 260.773C105.656 262.555 106.023 263.711 106.133 264.242H106.227C106.312 263.828 106.582 262.973 107.035 261.676C107.496 260.371 108.523 257.531 110.117 253.156H112.203L107.328 266H105.055ZM116.211 266H114.266V253.156H116.211V266ZM114.102 249.676C114.102 249.23 114.211 248.906 114.43 248.703C114.648 248.492 114.922 248.387 115.25 248.387C115.562 248.387 115.832 248.492 116.059 248.703C116.285 248.914 116.398 249.238 116.398 249.676C116.398 250.113 116.285 250.441 116.059 250.66C115.832 250.871 115.562 250.977 115.25 250.977C114.922 250.977 114.648 250.871 114.43 250.66C114.211 250.441 114.102 250.113 114.102 249.676ZM122.281 266H120.336V247.766H122.281V266ZM128.352 266H126.406V247.766H128.352V266ZM137.902 266.234C136.004 266.234 134.504 265.656 133.402 264.5C132.309 263.344 131.762 261.738 131.762 259.684C131.762 257.613 132.27 255.969 133.285 254.75C134.309 253.531 135.68 252.922 137.398 252.922C139.008 252.922 140.281 253.453 141.219 254.516C142.156 255.57 142.625 256.965 142.625 258.699V259.93H133.777C133.816 261.438 134.195 262.582 134.914 263.363C135.641 264.145 136.66 264.535 137.973 264.535C139.355 264.535 140.723 264.246 142.074 263.668V265.402C141.387 265.699 140.734 265.91 140.117 266.035C139.508 266.168 138.77 266.234 137.902 266.234ZM137.375 254.551C136.344 254.551 135.52 254.887 134.902 255.559C134.293 256.23 133.934 257.16 133.824 258.348H140.539C140.539 257.121 140.266 256.184 139.719 255.535C139.172 254.879 138.391 254.551 137.375 254.551Z" fill="#753075"/>
<path d="M576 210C576 198.954 584.954 190 596 190H723C734.046 190 743 198.954 743 210V210C743 221.046 734.046 230 723 230H596C584.954 230 576 221.046 576 210V210Z" fill="white"/>
<path d="M601.023 215.441C601.023 216.949 600.477 218.125 599.383 218.969C598.289 219.812 596.805 220.234 594.93 220.234C592.898 220.234 591.336 219.973 590.242 219.449V217.527C590.945 217.824 591.711 218.059 592.539 218.23C593.367 218.402 594.188 218.488 595 218.488C596.328 218.488 597.328 218.238 598 217.738C598.672 217.23 599.008 216.527 599.008 215.629C599.008 215.035 598.887 214.551 598.645 214.176C598.41 213.793 598.012 213.441 597.449 213.121C596.895 212.801 596.047 212.438 594.906 212.031C593.312 211.461 592.172 210.785 591.484 210.004C590.805 209.223 590.465 208.203 590.465 206.945C590.465 205.625 590.961 204.574 591.953 203.793C592.945 203.012 594.258 202.621 595.891 202.621C597.594 202.621 599.16 202.934 600.59 203.559L599.969 205.293C598.555 204.699 597.18 204.402 595.844 204.402C594.789 204.402 593.965 204.629 593.371 205.082C592.777 205.535 592.48 206.164 592.48 206.969C592.48 207.562 592.59 208.051 592.809 208.434C593.027 208.809 593.395 209.156 593.91 209.477C594.434 209.789 595.23 210.137 596.301 210.52C598.098 211.16 599.332 211.848 600.004 212.582C600.684 213.316 601.023 214.27 601.023 215.441ZM606.062 207.156V215.488C606.062 216.535 606.301 217.316 606.777 217.832C607.254 218.348 608 218.605 609.016 218.605C610.359 218.605 611.34 218.238 611.957 217.504C612.582 216.77 612.895 215.57 612.895 213.906V207.156H614.84V220H613.234L612.953 218.277H612.848C612.449 218.91 611.895 219.395 611.184 219.73C610.48 220.066 609.676 220.234 608.77 220.234C607.207 220.234 606.035 219.863 605.254 219.121C604.48 218.379 604.094 217.191 604.094 215.559V207.156H606.062ZM624.109 220.234C622.25 220.234 620.809 219.664 619.785 218.523C618.77 217.375 618.262 215.754 618.262 213.66C618.262 211.512 618.777 209.852 619.809 208.68C620.848 207.508 622.324 206.922 624.238 206.922C624.855 206.922 625.473 206.988 626.09 207.121C626.707 207.254 627.191 207.41 627.543 207.59L626.945 209.242C626.516 209.07 626.047 208.93 625.539 208.82C625.031 208.703 624.582 208.645 624.191 208.645C621.582 208.645 620.277 210.309 620.277 213.637C620.277 215.215 620.594 216.426 621.227 217.27C621.867 218.113 622.812 218.535 624.062 218.535C625.133 218.535 626.23 218.305 627.355 217.844V219.566C626.496 220.012 625.414 220.234 624.109 220.234ZM628.375 207.156H630.461L633.273 214.48C633.891 216.152 634.273 217.359 634.422 218.102H634.516C634.617 217.703 634.828 217.023 635.148 216.062C635.477 215.094 636.539 212.125 638.336 207.156H640.422L634.902 221.781C634.355 223.227 633.715 224.25 632.98 224.852C632.254 225.461 631.359 225.766 630.297 225.766C629.703 225.766 629.117 225.699 628.539 225.566V224.008C628.969 224.102 629.449 224.148 629.98 224.148C631.316 224.148 632.27 223.398 632.84 221.898L633.555 220.07L628.375 207.156ZM641.43 214.457V212.676H647.184V214.457H641.43ZM655.668 220.234C653.77 220.234 652.27 219.656 651.168 218.5C650.074 217.344 649.527 215.738 649.527 213.684C649.527 211.613 650.035 209.969 651.051 208.75C652.074 207.531 653.445 206.922 655.164 206.922C656.773 206.922 658.047 207.453 658.984 208.516C659.922 209.57 660.391 210.965 660.391 212.699V213.93H651.543C651.582 215.438 651.961 216.582 652.68 217.363C653.406 218.145 654.426 218.535 655.738 218.535C657.121 218.535 658.488 218.246 659.84 217.668V219.402C659.152 219.699 658.5 219.91 657.883 220.035C657.273 220.168 656.535 220.234 655.668 220.234ZM655.141 208.551C654.109 208.551 653.285 208.887 652.668 209.559C652.059 210.23 651.699 211.16 651.59 212.348H658.305C658.305 211.121 658.031 210.184 657.484 209.535C656.938 208.879 656.156 208.551 655.141 208.551ZM672.508 220V211.691C672.508 210.645 672.27 209.863 671.793 209.348C671.316 208.832 670.57 208.574 669.555 208.574C668.211 208.574 667.227 208.938 666.602 209.664C665.977 210.391 665.664 211.59 665.664 213.262V220H663.719V207.156H665.301L665.617 208.914H665.711C666.109 208.281 666.668 207.793 667.387 207.449C668.105 207.098 668.906 206.922 669.789 206.922C671.336 206.922 672.5 207.297 673.281 208.047C674.062 208.789 674.453 209.98 674.453 211.621V220H672.508ZM677.383 214.457V212.676H683.137V214.457H677.383ZM686.488 202.867H691.328C693.602 202.867 695.246 203.207 696.262 203.887C697.277 204.566 697.785 205.641 697.785 207.109C697.785 208.125 697.5 208.965 696.93 209.629C696.367 210.285 695.543 210.711 694.457 210.906V211.023C697.059 211.469 698.359 212.836 698.359 215.125C698.359 216.656 697.84 217.852 696.801 218.711C695.77 219.57 694.324 220 692.465 220H686.488V202.867ZM688.48 210.203H691.762C693.168 210.203 694.18 209.984 694.797 209.547C695.414 209.102 695.723 208.355 695.723 207.309C695.723 206.348 695.379 205.656 694.691 205.234C694.004 204.805 692.91 204.59 691.41 204.59H688.48V210.203ZM688.48 211.891V218.301H692.055C693.438 218.301 694.477 218.035 695.172 217.504C695.875 216.965 696.227 216.125 696.227 214.984C696.227 213.922 695.867 213.141 695.148 212.641C694.438 212.141 693.352 211.891 691.891 211.891H688.48ZM707.617 206.922C708.188 206.922 708.699 206.969 709.152 207.062L708.883 208.867C708.352 208.75 707.883 208.691 707.477 208.691C706.438 208.691 705.547 209.113 704.805 209.957C704.07 210.801 703.703 211.852 703.703 213.109V220H701.758V207.156H703.363L703.586 209.535H703.68C704.156 208.699 704.73 208.055 705.402 207.602C706.074 207.148 706.812 206.922 707.617 206.922ZM713.5 220H711.555V207.156H713.5V220ZM711.391 203.676C711.391 203.23 711.5 202.906 711.719 202.703C711.938 202.492 712.211 202.387 712.539 202.387C712.852 202.387 713.121 202.492 713.348 202.703C713.574 202.914 713.688 203.238 713.688 203.676C713.688 204.113 713.574 204.441 713.348 204.66C713.121 204.871 712.852 204.977 712.539 204.977C712.211 204.977 711.938 204.871 711.719 204.66C711.5 204.441 711.391 204.113 711.391 203.676ZM723.051 220.234C721.152 220.234 719.652 219.656 718.551 218.5C717.457 217.344 716.91 215.738 716.91 213.684C716.91 211.613 717.418 209.969 718.434 208.75C719.457 207.531 720.828 206.922 722.547 206.922C724.156 206.922 725.43 207.453 726.367 208.516C727.305 209.57 727.773 210.965 727.773 212.699V213.93H718.926C718.965 215.438 719.344 216.582 720.062 217.363C720.789 218.145 721.809 218.535 723.121 218.535C724.504 218.535 725.871 218.246 727.223 217.668V219.402C726.535 219.699 725.883 219.91 725.266 220.035C724.656 220.168 723.918 220.234 723.051 220.234ZM722.523 208.551C721.492 208.551 720.668 208.887 720.051 209.559C719.441 210.23 719.082 211.16 718.973 212.348H725.688C725.688 211.121 725.414 210.184 724.867 209.535C724.32 208.879 723.539 208.551 722.523 208.551Z" fill="#753075"/>
<path d="M479 310C479 298.954 487.954 290 499 290H710C721.046 290 730 298.954 730 310V310C730 321.046 721.046 330 710 330H499C487.954 330 479 321.046 479 310V310Z" fill="white"/>
<path d="M494.355 302.867H499.195C501.469 302.867 503.113 303.207 504.129 303.887C505.145 304.566 505.652 305.641 505.652 307.109C505.652 308.125 505.367 308.965 504.797 309.629C504.234 310.285 503.41 310.711 502.324 310.906V311.023C504.926 311.469 506.227 312.836 506.227 315.125C506.227 316.656 505.707 317.852 504.668 318.711C503.637 319.57 502.191 320 500.332 320H494.355V302.867ZM496.348 310.203H499.629C501.035 310.203 502.047 309.984 502.664 309.547C503.281 309.102 503.59 308.355 503.59 307.309C503.59 306.348 503.246 305.656 502.559 305.234C501.871 304.805 500.777 304.59 499.277 304.59H496.348V310.203ZM496.348 311.891V318.301H499.922C501.305 318.301 502.344 318.035 503.039 317.504C503.742 316.965 504.094 316.125 504.094 314.984C504.094 313.922 503.734 313.141 503.016 312.641C502.305 312.141 501.219 311.891 499.758 311.891H496.348ZM520.711 313.566C520.711 315.66 520.184 317.297 519.129 318.477C518.074 319.648 516.617 320.234 514.758 320.234C513.609 320.234 512.59 319.965 511.699 319.426C510.809 318.887 510.121 318.113 509.637 317.105C509.152 316.098 508.91 314.918 508.91 313.566C508.91 311.473 509.434 309.844 510.48 308.68C511.527 307.508 512.98 306.922 514.84 306.922C516.637 306.922 518.062 307.52 519.117 308.715C520.18 309.91 520.711 311.527 520.711 313.566ZM510.926 313.566C510.926 315.207 511.254 316.457 511.91 317.316C512.566 318.176 513.531 318.605 514.805 318.605C516.078 318.605 517.043 318.18 517.699 317.328C518.363 316.469 518.695 315.215 518.695 313.566C518.695 311.934 518.363 310.695 517.699 309.852C517.043 309 516.07 308.574 514.781 308.574C513.508 308.574 512.547 308.992 511.898 309.828C511.25 310.664 510.926 311.91 510.926 313.566ZM532.922 320V311.691C532.922 310.645 532.684 309.863 532.207 309.348C531.73 308.832 530.984 308.574 529.969 308.574C528.625 308.574 527.641 308.938 527.016 309.664C526.391 310.391 526.078 311.59 526.078 313.262V320H524.133V307.156H525.715L526.031 308.914H526.125C526.523 308.281 527.082 307.793 527.801 307.449C528.52 307.098 529.32 306.922 530.203 306.922C531.75 306.922 532.914 307.297 533.695 308.047C534.477 308.789 534.867 309.98 534.867 311.621V320H532.922ZM547.664 320V311.691C547.664 310.645 547.426 309.863 546.949 309.348C546.473 308.832 545.727 308.574 544.711 308.574C543.367 308.574 542.383 308.938 541.758 309.664C541.133 310.391 540.82 311.59 540.82 313.262V320H538.875V307.156H540.457L540.773 308.914H540.867C541.266 308.281 541.824 307.793 542.543 307.449C543.262 307.098 544.062 306.922 544.945 306.922C546.492 306.922 547.656 307.297 548.438 308.047C549.219 308.789 549.609 309.98 549.609 311.621V320H547.664ZM559.043 320.234C557.145 320.234 555.645 319.656 554.543 318.5C553.449 317.344 552.902 315.738 552.902 313.684C552.902 311.613 553.41 309.969 554.426 308.75C555.449 307.531 556.82 306.922 558.539 306.922C560.148 306.922 561.422 307.453 562.359 308.516C563.297 309.57 563.766 310.965 563.766 312.699V313.93H554.918C554.957 315.438 555.336 316.582 556.055 317.363C556.781 318.145 557.801 318.535 559.113 318.535C560.496 318.535 561.863 318.246 563.215 317.668V319.402C562.527 319.699 561.875 319.91 561.258 320.035C560.648 320.168 559.91 320.234 559.043 320.234ZM558.516 308.551C557.484 308.551 556.66 308.887 556.043 309.559C555.434 310.23 555.074 311.16 554.965 312.348H561.68C561.68 311.121 561.406 310.184 560.859 309.535C560.312 308.879 559.531 308.551 558.516 308.551ZM568.922 307.156V315.488C568.922 316.535 569.16 317.316 569.637 317.832C570.113 318.348 570.859 318.605 571.875 318.605C573.219 318.605 574.199 318.238 574.816 317.504C575.441 316.77 575.754 315.57 575.754 313.906V307.156H577.699V320H576.094L575.812 318.277H575.707C575.309 318.91 574.754 319.395 574.043 319.73C573.34 320.066 572.535 320.234 571.629 320.234C570.066 320.234 568.895 319.863 568.113 319.121C567.34 318.379 566.953 317.191 566.953 315.559V307.156H568.922ZM583.781 320H581.836V307.156H583.781V320ZM581.672 303.676C581.672 303.23 581.781 302.906 582 302.703C582.219 302.492 582.492 302.387 582.82 302.387C583.133 302.387 583.402 302.492 583.629 302.703C583.855 302.914 583.969 303.238 583.969 303.676C583.969 304.113 583.855 304.441 583.629 304.66C583.402 304.871 583.133 304.977 582.82 304.977C582.492 304.977 582.219 304.871 582 304.66C581.781 304.441 581.672 304.113 581.672 303.676ZM589.852 320H587.906V301.766H589.852V320ZM592.898 314.457V312.676H598.652V314.457H592.898ZM609.996 316.496C609.996 317.691 609.551 318.613 608.66 319.262C607.77 319.91 606.52 320.234 604.91 320.234C603.207 320.234 601.879 319.965 600.926 319.426V317.621C601.543 317.934 602.203 318.18 602.906 318.359C603.617 318.539 604.301 318.629 604.957 318.629C605.973 318.629 606.754 318.469 607.301 318.148C607.848 317.82 608.121 317.324 608.121 316.66C608.121 316.16 607.902 315.734 607.465 315.383C607.035 315.023 606.191 314.602 604.934 314.117C603.738 313.672 602.887 313.285 602.379 312.957C601.879 312.621 601.504 312.242 601.254 311.82C601.012 311.398 600.891 310.895 600.891 310.309C600.891 309.262 601.316 308.438 602.168 307.836C603.02 307.227 604.188 306.922 605.672 306.922C607.055 306.922 608.406 307.203 609.727 307.766L609.035 309.348C607.746 308.816 606.578 308.551 605.531 308.551C604.609 308.551 603.914 308.695 603.445 308.984C602.977 309.273 602.742 309.672 602.742 310.18C602.742 310.523 602.828 310.816 603 311.059C603.18 311.301 603.465 311.531 603.855 311.75C604.246 311.969 604.996 312.285 606.105 312.699C607.629 313.254 608.656 313.812 609.188 314.375C609.727 314.938 609.996 315.645 609.996 316.496ZM615 307.156V315.488C615 316.535 615.238 317.316 615.715 317.832C616.191 318.348 616.938 318.605 617.953 318.605C619.297 318.605 620.277 318.238 620.895 317.504C621.52 316.77 621.832 315.57 621.832 313.906V307.156H623.777V320H622.172L621.891 318.277H621.785C621.387 318.91 620.832 319.395 620.121 319.73C619.418 320.066 618.613 320.234 617.707 320.234C616.145 320.234 614.973 319.863 614.191 319.121C613.418 318.379 613.031 317.191 613.031 315.559V307.156H615ZM633.773 306.922C634.344 306.922 634.855 306.969 635.309 307.062L635.039 308.867C634.508 308.75 634.039 308.691 633.633 308.691C632.594 308.691 631.703 309.113 630.961 309.957C630.227 310.801 629.859 311.852 629.859 313.109V320H627.914V307.156H629.52L629.742 309.535H629.836C630.312 308.699 630.887 308.055 631.559 307.602C632.23 307.148 632.969 306.922 633.773 306.922ZM636.633 314.457V312.676H642.387V314.457H636.633ZM653.32 320L647.508 304.812H647.414C647.523 306.016 647.578 307.445 647.578 309.102V320H645.738V302.867H648.738L654.164 317H654.258L659.73 302.867H662.707V320H660.715V308.961C660.715 307.695 660.77 306.32 660.879 304.836H660.785L654.926 320H653.32ZM675.023 320L674.637 318.172H674.543C673.902 318.977 673.262 319.523 672.621 319.812C671.988 320.094 671.195 320.234 670.242 320.234C668.969 320.234 667.969 319.906 667.242 319.25C666.523 318.594 666.164 317.66 666.164 316.449C666.164 313.855 668.238 312.496 672.387 312.371L674.566 312.301V311.504C674.566 310.496 674.348 309.754 673.91 309.277C673.48 308.793 672.789 308.551 671.836 308.551C670.766 308.551 669.555 308.879 668.203 309.535L667.605 308.047C668.238 307.703 668.93 307.434 669.68 307.238C670.438 307.043 671.195 306.945 671.953 306.945C673.484 306.945 674.617 307.285 675.352 307.965C676.094 308.645 676.465 309.734 676.465 311.234V320H675.023ZM670.629 318.629C671.84 318.629 672.789 318.297 673.477 317.633C674.172 316.969 674.52 316.039 674.52 314.844V313.684L672.574 313.766C671.027 313.82 669.91 314.062 669.223 314.492C668.543 314.914 668.203 315.574 668.203 316.473C668.203 317.176 668.414 317.711 668.836 318.078C669.266 318.445 669.863 318.629 670.629 318.629ZM686.344 306.922C686.914 306.922 687.426 306.969 687.879 307.062L687.609 308.867C687.078 308.75 686.609 308.691 686.203 308.691C685.164 308.691 684.273 309.113 683.531 309.957C682.797 310.801 682.43 311.852 682.43 313.109V320H680.484V307.156H682.09L682.312 309.535H682.406C682.883 308.699 683.457 308.055 684.129 307.602C684.801 307.148 685.539 306.922 686.344 306.922ZM699.07 320V311.691C699.07 310.645 698.832 309.863 698.355 309.348C697.879 308.832 697.133 308.574 696.117 308.574C694.773 308.574 693.789 308.938 693.164 309.664C692.539 310.391 692.227 311.59 692.227 313.262V320H690.281V307.156H691.863L692.18 308.914H692.273C692.672 308.281 693.23 307.793 693.949 307.449C694.668 307.098 695.469 306.922 696.352 306.922C697.898 306.922 699.062 307.297 699.844 308.047C700.625 308.789 701.016 309.98 701.016 311.621V320H699.07ZM710.449 320.234C708.551 320.234 707.051 319.656 705.949 318.5C704.855 317.344 704.309 315.738 704.309 313.684C704.309 311.613 704.816 309.969 705.832 308.75C706.855 307.531 708.227 306.922 709.945 306.922C711.555 306.922 712.828 307.453 713.766 308.516C714.703 309.57 715.172 310.965 715.172 312.699V313.93H706.324C706.363 315.438 706.742 316.582 707.461 317.363C708.188 318.145 709.207 318.535 710.52 318.535C711.902 318.535 713.27 318.246 714.621 317.668V319.402C713.934 319.699 713.281 319.91 712.664 320.035C712.055 320.168 711.316 320.234 710.449 320.234ZM709.922 308.551C708.891 308.551 708.066 308.887 707.449 309.559C706.84 310.23 706.48 311.16 706.371 312.348H713.086C713.086 311.121 712.812 310.184 712.266 309.535C711.719 308.879 710.938 308.551 709.922 308.551Z" fill="#753075"/>
</g>
<defs>
<clipPath id="clip0_40_17">
<rect width="1920" height="4668" fill="white" transform="translate(-626 -2436)"/>
</clipPath>
<clipPath id="clip1_40_17">
<rect width="20" height="26" fill="white" transform="translate(361 124)"/>
</clipPath>
</defs>
</svg>
