<svg width="251" height="225" viewBox="0 0 251 225" fill="none" xmlns="http://www.w3.org/2000/svg">
<path fill-rule="evenodd" clip-rule="evenodd" d="M80.8221 76.0697C72.2836 68.1322 60.7843 60.3934 61.1885 48.7484C61.6042 36.7734 73.5146 29.3834 82.709 21.7147C92.4137 13.6204 102.024 4.17946 114.667 4.14409C128.647 4.10499 144.215 9.34406 151.101 21.5234C157.639 33.0882 147.539 46.3079 145.959 59.4904C144.362 72.8202 152.95 90.3637 141.936 98.024C130.848 105.736 116.801 93.1897 104.078 88.6191C95.4616 85.5237 87.5302 82.3056 80.8221 76.0697Z" fill="#FFECEC"/>
<path fill-rule="evenodd" clip-rule="evenodd" d="M97.6934 165.622C87.8164 171.815 77.3651 180.919 66.2215 177.515C54.7621 174.014 50.7066 160.597 45.6789 149.731C40.3722 138.262 33.7401 126.536 36.9783 114.314C40.5588 100.801 49.6486 87.1194 63.1952 83.6203C76.0582 80.2977 86.2132 93.4757 98.5378 98.413C111 103.405 130.168 99.6511 134.717 112.272C139.296 124.979 123.542 135.3 115.834 146.406C110.614 153.928 105.453 160.756 97.6934 165.622Z" fill="#FFECEC"/>
<path fill-rule="evenodd" clip-rule="evenodd" d="M19.9232 83.6817C28.1108 76.5529 40.6256 81.9844 51.3267 80.3227C58.7584 79.1687 65.496 75.1632 72.8878 75.4571C81.646 75.8054 90.3382 77.2942 97.0046 82.139C104.94 87.906 114.847 95.1513 113.488 104.962C112.11 114.911 98.7925 119.53 90.8223 126.772C84.8638 132.186 80.095 138.492 72.7508 141.976C64.8069 145.745 56.2145 148.042 47.7508 147.206C38.4217 146.284 29.1858 143.446 23.189 137.078C16.9828 130.488 15.3085 121.257 14.7525 112.167C14.1615 102.503 11.9471 90.6264 19.9232 83.6817Z" stroke="#753075"/>
<path fill-rule="evenodd" clip-rule="evenodd" d="M19.5308 84.177C27.6249 76.9547 40.2312 82.2228 50.9199 80.4293C58.3431 79.1838 65.0305 75.0991 72.4345 75.3001C81.2071 75.5384 89.93 76.9166 96.6731 81.6719C104.7 87.3324 114.721 94.4447 113.501 104.26C112.265 114.214 98.9995 118.993 91.1247 126.326C85.2374 131.807 80.5539 138.165 73.2518 141.737C65.3535 145.601 56.7848 148.003 48.2999 147.273C38.9476 146.469 29.661 143.75 23.5663 137.466C17.2589 130.962 15.4503 121.763 14.7633 112.692C14.0329 103.047 11.6457 91.2128 19.5308 84.177Z" stroke="#753075"/>
<path fill-rule="evenodd" clip-rule="evenodd" d="M19.2583 84.5285C27.2857 77.2411 39.955 82.3936 50.634 80.5074C58.0503 79.1975 64.7016 75.0574 72.1134 75.193C80.8953 75.3537 89.6389 76.6539 96.4354 81.3456C104.526 86.9304 114.627 93.9482 113.505 103.766C112.368 113.722 99.1409 118.614 91.3341 126.01C85.4976 131.538 80.8748 137.932 73.6031 141.565C65.7377 145.495 57.1866 147.971 48.6878 147.317C39.32 146.596 29.9987 143.961 23.8358 137.735C17.4577 131.293 15.5547 122.118 14.7754 113.06C13.9469 103.43 11.4382 91.6277 19.2583 84.5285Z" stroke="#753075"/>
<path fill-rule="evenodd" clip-rule="evenodd" d="M20.383 83.077C28.6881 76.0711 41.0192 81.6901 51.7035 80.1888C59.1235 79.1462 65.9164 75.2419 73.2645 75.6466C81.9709 76.1261 90.5863 77.7452 97.1114 82.6898C104.879 88.5756 114.574 95.9693 113.004 105.76C111.411 115.688 98.0585 120.107 89.9672 127.229C83.9182 132.553 79.033 138.788 71.6482 142.162C63.6604 145.812 55.0601 147.98 46.6575 147.017C37.3958 145.955 28.2695 142.979 22.4444 136.521C16.4161 129.839 14.9555 120.582 14.6046 111.485C14.2315 101.811 12.2925 89.902 20.383 83.077Z" stroke="#753075"/>
<path fill-rule="evenodd" clip-rule="evenodd" d="M69.0255 191.61C67.8382 180.819 79.4365 173.636 84.1736 163.897C87.4635 157.134 88.0151 149.316 92.4717 143.411C97.752 136.415 103.932 130.123 111.713 127.41C120.976 124.179 132.577 120.173 139.861 126.884C147.248 133.689 143.448 147.263 144.852 157.94C145.902 165.922 148.363 173.435 147.037 181.455C145.603 190.13 142.591 198.499 137.078 204.974C131.001 212.112 123.402 218.081 114.752 219.376C105.8 220.717 97.2614 216.828 89.4774 212.101C81.2011 207.076 70.1822 202.123 69.0255 191.61Z" stroke="#753075"/>
<path fill-rule="evenodd" clip-rule="evenodd" d="M69.2086 192.215C67.8912 181.447 79.4074 174.096 84.0293 164.292C87.239 157.484 87.6969 149.661 92.0842 143.694C97.2824 136.623 103.389 130.243 111.14 127.416C120.367 124.05 131.924 119.873 139.292 126.472C146.764 133.164 143.126 146.787 144.658 157.437C145.804 165.399 148.357 172.872 147.127 180.907C145.797 189.599 142.884 198.008 137.446 204.562C131.453 211.786 123.923 217.864 115.285 219.287C106.346 220.76 97.7578 217 89.9141 212.392C81.5744 207.492 70.492 202.705 69.2086 192.215Z" stroke="#753075"/>
<path fill-rule="evenodd" clip-rule="evenodd" d="M69.342 192.639C67.9331 181.889 79.3903 174.42 83.9304 164.572C87.0834 157.733 87.4752 149.908 91.8131 143.896C96.9529 136.774 103.007 130.333 110.737 127.425C119.938 123.964 131.463 119.668 138.888 126.188C146.419 132.799 142.895 146.454 144.518 157.085C145.732 165.032 148.348 172.476 147.186 180.521C145.929 189.223 143.086 197.659 137.703 204.268C131.769 211.552 124.289 217.707 115.661 219.22C106.731 220.785 98.1089 217.117 90.2241 212.592C81.8405 207.781 70.7145 203.112 69.342 192.639Z" stroke="#753075"/>
<path fill-rule="evenodd" clip-rule="evenodd" d="M68.791 190.888C67.7716 180.07 79.4192 173.145 84.2785 163.512C87.6532 156.822 88.3194 149.015 92.8421 143.21C98.2007 136.331 104.444 130.177 112.226 127.636C121.491 124.612 133.093 120.863 140.24 127.736C147.488 134.706 143.503 148.195 144.74 158.903C145.665 166.908 148.001 174.476 146.561 182.467C145.004 191.11 141.882 199.411 136.299 205.765C130.145 212.768 122.496 218.567 113.87 219.67C104.942 220.812 96.5059 216.733 88.8321 211.834C80.6729 206.624 69.784 201.426 68.791 190.888Z" stroke="#753075"/>
<path fill-rule="evenodd" clip-rule="evenodd" d="M180.13 213.297C171.125 207.234 173.132 193.739 168.757 183.833C165.719 176.953 160.106 171.482 158.477 164.266C156.547 155.716 155.735 146.935 158.689 139.241C162.206 130.084 166.641 118.64 176.469 117.413C186.436 116.169 194.343 127.837 203.401 133.661C210.173 138.016 217.499 140.99 222.765 147.182C228.461 153.88 232.904 161.585 234.287 169.976C235.811 179.226 235.46 188.882 230.862 196.323C226.103 204.023 217.619 208.029 208.983 210.919C199.801 213.991 188.902 219.204 180.13 213.297Z" stroke="#753075"/>
<path fill-rule="evenodd" clip-rule="evenodd" d="M180.71 213.548C171.639 207.599 173.465 194.059 168.966 184.198C165.841 177.35 160.165 171.948 158.443 164.744C156.402 156.209 155.476 147.427 158.324 139.683C161.714 130.464 165.991 118.944 175.787 117.581C185.722 116.2 193.772 127.776 202.892 133.485C209.711 137.753 217.065 140.631 222.405 146.76C228.181 153.389 232.719 161.044 234.21 169.429C235.854 178.67 235.631 188.344 231.138 195.858C226.488 203.634 218.071 207.761 209.487 210.773C200.359 213.975 189.547 219.343 180.71 213.548Z" stroke="#753075"/>
<path fill-rule="evenodd" clip-rule="evenodd" d="M181.12 213.72C172.003 207.852 173.701 194.281 169.115 184.454C165.93 177.63 160.21 172.277 158.423 165.082C156.305 156.558 155.298 147.776 158.07 139.997C161.371 130.737 165.535 119.164 175.309 117.706C185.22 116.227 193.369 127.737 202.533 133.364C209.384 137.571 216.756 140.381 222.148 146.465C227.979 153.045 232.584 160.664 234.151 169.043C235.88 178.278 235.747 187.963 231.329 195.528C226.757 203.356 218.387 207.569 209.84 210.666C200.752 213.958 190.001 219.436 181.12 213.72Z" stroke="#753075"/>
<path fill-rule="evenodd" clip-rule="evenodd" d="M179.427 213.009C170.51 206.801 172.746 193.435 168.531 183.504C165.603 176.606 160.074 171.056 158.563 163.853C156.773 155.319 156.107 146.578 159.194 138.996C162.869 129.97 167.501 118.691 177.364 117.674C187.366 116.643 195.091 128.397 204.064 134.369C210.773 138.834 218.059 141.939 223.23 148.199C228.823 154.97 233.143 162.716 234.387 171.081C235.759 180.302 235.246 189.888 230.516 197.186C225.622 204.738 217.059 208.545 208.362 211.239C199.115 214.103 188.113 219.058 179.427 213.009Z" stroke="#753075"/>
</svg>
