<svg width="25" height="25" viewBox="0 0 25 25" fill="none" xmlns="http://www.w3.org/2000/svg">
<g clip-path="url(#clip0_174_29)">
<path fill-rule="evenodd" clip-rule="evenodd" d="M2.94532 0.798606C3.21871 0.52562 3.54701 0.313853 3.90844 0.17734C4.26987 0.0408273 4.65618 -0.0173148 5.04178 0.00676674C5.42738 0.0308483 5.80346 0.136604 6.1451 0.317025C6.48674 0.497446 6.78613 0.748412 7.02344 1.05329L9.82813 4.65642C10.3422 5.31736 10.5234 6.17829 10.3203 6.99079L9.46563 10.4127C9.42144 10.5899 9.42383 10.7755 9.47256 10.9516C9.52129 11.1276 9.61471 11.2881 9.74375 11.4174L13.5828 15.2564C13.7122 15.3857 13.873 15.4793 14.0493 15.528C14.2256 15.5768 14.4116 15.579 14.5891 15.5345L18.0094 14.6799C18.4103 14.5796 18.8288 14.5718 19.2333 14.6571C19.6377 14.7424 20.0174 14.9184 20.3438 15.172L23.9469 17.9752C25.2422 18.983 25.3609 20.897 24.2016 22.0549L22.5859 23.6705C21.4297 24.8267 19.7016 25.3345 18.0906 24.7674C13.9675 23.3166 10.2239 20.9562 7.1375 17.8611C4.04264 14.7752 1.6822 11.0321 0.231253 6.90954C-0.334372 5.30017 0.173441 3.57048 1.32969 2.41423L2.94532 0.798606Z" fill="#753075"/>
</g>
<defs>
<clipPath id="clip0_174_29">
<rect width="25" height="25" fill="white"/>
</clipPath>
</defs>
</svg>
