<svg width="231" height="243" viewBox="0 0 231 243" fill="none" xmlns="http://www.w3.org/2000/svg">
<path fill-rule="evenodd" clip-rule="evenodd" d="M77.8997 184.805C69.7464 193.138 61.716 204.436 50.0852 203.734C38.1247 203.012 31.0418 190.916 23.6108 181.529C15.7674 171.62 6.57535 161.772 6.86339 149.132C7.18188 135.155 12.8174 119.727 25.1689 113.155C36.8972 106.914 49.8542 117.349 62.992 119.265C76.2766 121.203 94.034 113.067 101.41 124.273C108.836 135.555 95.9344 149.276 91.0399 161.878C87.7252 170.412 84.3052 178.259 77.8997 184.805Z" fill="#FFECEC"/>
<path fill-rule="evenodd" clip-rule="evenodd" d="M167.854 170.23C173.793 180.262 182.627 190.943 178.938 201.996C175.146 213.362 161.629 217.073 150.638 221.821C139.037 226.833 127.145 233.163 115.01 229.613C101.593 225.688 88.1484 216.251 84.9969 202.62C82.0044 189.676 95.4379 179.861 100.689 167.667C105.998 155.336 102.736 136.078 115.469 131.854C128.288 127.601 138.203 143.614 149.109 151.604C156.494 157.014 163.188 162.349 167.854 170.23Z" fill="#FFECEC"/>
<path fill-rule="evenodd" clip-rule="evenodd" d="M179.072 79.1016C190.299 75.962 202.902 70.1932 212.624 76.6165C222.621 83.2219 222.707 97.2384 224.449 109.084C226.287 121.587 229.324 134.711 222.754 145.514C215.49 157.459 202.895 168.002 188.912 167.518C175.635 167.059 169.632 151.543 159.212 143.315C148.676 134.995 129.229 133.162 128.445 119.769C127.655 106.286 145.688 100.854 156.228 92.3873C163.366 86.6536 170.251 81.5682 179.072 79.1016Z" fill="#FFECEC"/>
<path fill-rule="evenodd" clip-rule="evenodd" d="M96.8252 41.5453C97.9886 29.9454 97.2043 16.1068 106.726 9.39095C116.518 2.48485 129.604 7.50765 141.27 10.1982C153.584 13.038 166.914 14.9885 174.584 25.0403C183.064 36.1544 188.298 51.7235 182.757 64.5705C177.495 76.7692 160.858 76.7115 149.401 83.4204C137.816 90.2043 129.029 107.649 116.269 103.504C103.424 99.3304 104.93 80.5568 100.882 67.658C98.1407 58.9224 95.9111 50.6584 96.8252 41.5453Z" fill="#FFECEC"/>
<path fill-rule="evenodd" clip-rule="evenodd" d="M145.573 237.13C135.749 232.51 135.676 218.868 129.843 209.744C125.791 203.407 119.41 198.856 116.7 191.972C113.489 183.816 111.349 175.261 113.096 167.208C115.175 157.621 117.814 145.635 127.34 142.924C137.001 140.176 146.595 150.502 156.434 154.878C163.791 158.149 171.484 159.972 177.633 165.289C184.284 171.04 189.849 177.978 192.495 186.061C195.411 194.97 196.536 204.567 193.125 212.621C189.595 220.957 181.822 226.21 173.727 230.382C165.12 234.818 155.144 241.631 145.573 237.13Z" stroke="#753075"/>
<path fill-rule="evenodd" clip-rule="evenodd" d="M146.185 237.29C136.313 232.793 136.054 219.132 130.104 210.073C125.973 203.781 119.539 199.307 116.739 192.45C113.422 184.326 111.167 175.787 112.802 167.699C114.747 158.072 117.217 146.034 126.692 143.195C136.3 140.315 146.02 150.529 155.905 154.781C163.294 157.959 171 159.683 177.212 164.927C183.931 170.598 189.583 177.472 192.335 185.531C195.368 194.414 196.623 204.009 193.328 212.12C189.917 220.513 182.228 225.876 174.202 230.161C165.67 234.716 155.802 241.67 146.185 237.29Z" stroke="#753075"/>
<path fill-rule="evenodd" clip-rule="evenodd" d="M146.616 237.397C136.712 232.988 136.321 219.316 130.291 210.303C126.103 204.044 119.634 199.625 116.771 192.787C113.378 184.686 111.044 176.159 112.599 168.049C114.45 158.394 116.801 146.321 126.238 143.39C135.808 140.419 145.616 150.552 155.531 154.716C162.943 157.83 170.658 159.484 176.913 164.674C183.68 170.289 189.392 177.117 192.218 185.159C195.334 194.022 196.679 203.615 193.466 211.764C190.14 220.198 182.51 225.637 174.535 230.001C166.055 234.64 156.265 241.693 146.616 237.397Z" stroke="#753075"/>
<path fill-rule="evenodd" clip-rule="evenodd" d="M144.835 236.953C135.076 232.176 135.248 218.626 129.568 209.453C125.624 203.082 119.313 198.439 116.722 191.551C113.652 183.39 111.661 174.853 113.557 166.888C115.813 157.407 118.672 145.554 128.265 143.046C137.993 140.502 147.418 150.941 157.197 155.476C164.508 158.866 172.183 160.824 178.247 166.223C184.807 172.062 190.257 179.059 192.762 187.138C195.523 196.042 196.477 205.594 192.915 213.527C189.229 221.737 181.346 226.805 173.162 230.792C164.459 235.032 154.341 241.607 144.835 236.953Z" stroke="#753075"/>
</svg>
